<svg width="388" height="372" viewBox="0 0 388 372" fill="none" xmlns="http://www.w3.org/2000/svg">
<path d="M210.611 142.807C210.899 141.214 211.558 138.345 212.198 135.722C212.839 133.094 213.462 130.709 213.672 130.103C213.826 129.657 214.144 128.673 214.37 127.881C215.639 123.427 218.698 116.69 221.207 112.745C225.089 106.642 229.097 102.288 235.642 97.1016C242.727 91.486 248.976 85.0016 253.519 78.5586C254.357 77.3692 255.658 75.0917 256.857 72.8086C258.057 70.5255 259.152 68.2416 259.58 67.0381C259.896 66.1497 260.248 65.1616 260.408 64.8096C260.486 64.6383 260.609 64.2675 260.75 63.8057C260.891 63.345 261.05 62.7975 261.2 62.2754C261.503 61.2229 261.887 59.9303 262.059 59.4141C262.425 58.3138 262.678 56.7591 263.581 50.3359C263.956 47.6678 264.136 46.3854 264.144 45.0869C264.152 43.788 263.989 42.4719 263.677 39.7373C262.522 29.6123 259.092 21.79 253.365 16.1943C252.056 14.9152 251.128 14.0701 250.167 13.3652C249.206 12.6606 248.212 12.0946 246.771 11.374C242.099 9.03824 237.281 7.56743 232.013 6.93066C230.317 6.7257 227.691 6.68162 225.096 6.7666C222.5 6.8516 219.937 7.06561 218.367 7.375C210.72 8.88195 204.155 11.695 198.791 17.083C197.966 17.9116 197.195 18.6199 196.585 19.1211C196.28 19.3716 196.015 19.5718 195.804 19.709C195.698 19.7775 195.604 19.8306 195.525 19.8672C195.448 19.903 195.379 19.9258 195.324 19.9258H195.252C195.197 19.9258 195.128 19.9031 195.051 19.8672C194.972 19.8306 194.878 19.7775 194.772 19.709C194.561 19.5718 194.296 19.3716 193.991 19.1211C193.382 18.6199 192.61 17.9116 191.785 17.083C186.42 11.6933 179.853 8.24663 172.209 6.74023C170.639 6.43084 168.077 6.21683 165.48 6.13184C162.885 6.04685 160.26 6.09091 158.563 6.2959C153.296 6.93265 148.478 8.40261 143.807 10.7383C142.366 11.4588 141.371 12.025 140.41 12.7295C139.449 13.4343 138.52 14.2794 137.211 15.5586C131.485 21.1543 128.055 28.9774 126.9 39.1025C126.589 41.8369 126.425 43.1523 126.433 44.4512C126.441 45.7498 126.62 47.0326 126.995 49.7012C127.898 56.1241 128.152 57.6781 128.519 58.7783C128.691 59.2946 129.074 60.5872 129.377 61.6396C129.527 62.1616 129.685 62.7093 129.826 63.1699C129.968 63.632 130.09 64.0036 130.168 64.1748C130.328 64.527 130.68 65.5141 130.996 66.4023C131.424 67.6057 132.519 69.8897 133.719 72.1729C134.918 74.4559 136.219 76.7334 137.058 77.9229C141.6 84.366 147.849 90.8511 154.935 96.4668C161.479 101.653 165.487 106.006 169.369 112.109C171.879 116.055 174.937 122.791 176.206 127.245C176.432 128.037 176.75 129.021 176.904 129.467C177.114 130.072 177.737 132.458 178.378 135.086C179.018 137.71 179.679 140.582 179.966 142.174L195.168 164.483L210.611 142.807Z" fill="white" stroke="white" stroke-width="0.1"/>
<path d="M191.753 165.255C191.086 164.343 190.288 163.097 189.702 162.135C189.518 161.834 189.683 161.937 189.559 161.727C189.316 161.317 189.035 160.972 188.8 160.563C188.722 160.428 188.933 160.518 188.849 160.378C188.389 159.607 187.886 158.925 187.397 158.161C184.985 154.399 182.544 150.748 180.038 146.984C179.211 145.743 178.275 144.187 177.368 142.942C177.262 142.796 177.239 142.942 177.213 142.918C176.806 142.547 177.074 142.579 176.899 142.275C176.202 141.067 175.336 139.786 174.549 138.703C174.214 138.243 174.374 138.825 174.142 138.29C174.125 138.253 174.294 138.312 174.215 138.177C174.035 137.871 173.641 137.327 173.493 137.096C173.208 136.65 173.157 136.579 172.876 136.165C172.492 135.6 172.075 134.899 171.642 134.307C171.549 134.181 171.579 134.412 171.423 134.216C171.267 134.02 170.901 133.469 170.796 133.271C170.691 133.073 170.812 133.104 170.806 133.061C170.754 132.703 170.14 132.197 170.08 132.119C168.99 130.69 168.225 129.349 167.273 127.96C166.551 126.905 165.746 125.8 165.063 124.792C164.251 123.592 163.602 122.547 162.799 121.391C162.714 121.268 162.716 121.479 162.612 121.33C161.513 119.746 160.443 118.157 159.423 116.529C159.321 116.365 159.544 116.513 159.447 116.346C158.85 115.327 157.958 113.68 157.206 113.348C156.769 112.679 156.237 111.87 155.905 111.232C155.691 110.821 156.032 111.129 155.674 110.689C155.594 110.589 155.61 110.779 155.496 110.626C155.013 109.981 154.541 109.238 154.051 108.608C153.952 108.48 153.908 108.564 153.87 108.534C153.552 108.284 153.355 107.641 153.288 107.517C152.775 106.577 152.3 105.959 151.741 105.138C151.611 104.947 151.675 105.234 151.547 105.053C150.884 104.113 150.22 103.124 149.624 102.167C149.491 101.954 149.697 102.092 149.638 101.988C149.375 101.528 149.165 101.53 148.911 101.091C148.857 100.999 148.955 101.004 148.951 100.983C148.891 100.655 148.583 100.545 148.535 100.483C147.928 99.6975 147.734 99.0623 147.169 98.2884C147.102 98.1959 147.167 98.4645 146.982 98.2011C145.748 96.4462 144.489 94.5584 143.351 92.7635C143.174 92.4845 143.367 92.6384 143.362 92.6163C143.284 92.2591 143.008 92.1828 142.942 92.0979C142.421 91.4254 142.098 90.6844 141.593 90.3313C139.622 87.3216 137.503 84.4339 135.64 81.386C135.616 81.3473 135.733 81.3659 135.685 81.2891C135.108 80.3636 135.117 80.6114 134.576 80.108C134.441 79.981 134.289 79.4151 134.273 79.3668C134.215 79.1902 134.423 79.2713 134.398 79.2163C134.184 78.7645 133.887 79.0662 133.511 78.5169C133.5 78.4993 133.612 78.5283 133.587 78.4779C133.508 78.3213 133.386 78.1964 133.312 78.0415C133.142 77.6864 133.229 77.459 132.797 77.0354C132.742 76.982 132.614 77.2087 132.288 76.7121C132.158 76.514 131.562 75.6509 131.408 75.3998C131.254 75.1492 131.43 75.2734 131.42 75.2543C131.054 74.5463 131.257 74.7706 131.152 74.3618C131.047 73.9536 130.825 74.239 130.702 74.1274C130.579 74.0156 130.318 73.4917 130.26 73.3585C130.203 73.2252 130.342 73.3452 130.283 73.2319C129.892 72.4813 129.934 73.024 129.733 72.8264C129.259 72.3606 129.18 71.7986 128.862 71.2924C128.776 71.1554 128.803 71.2965 128.718 71.1808C128.378 70.7223 128.249 70.3956 127.823 69.9012C127.753 69.8204 127.334 69.4724 127.233 69.1306C127.218 69.082 127.346 69.1597 127.22 68.9516C127.032 68.6406 126.673 68.094 126.436 67.784C126.26 67.5551 126.364 67.8843 126.185 67.5677C126.105 67.4269 126.322 67.6397 126.169 67.3781C126.016 67.1178 125.578 66.4847 125.411 66.2443C125.244 66.0045 125.272 66.1793 125.254 66.1627C125.149 66.0613 124.802 65.6192 124.774 65.5782C123.353 63.5199 122.151 61.5472 120.74 59.5624C120.629 59.4066 120.638 59.555 120.62 59.5316C120.224 59.0101 120.683 59.3203 120.481 58.905C120.39 59.0473 120.261 58.8089 119.986 58.4385C119.854 58.2601 119.873 58.3937 119.856 58.3805C119.595 58.1602 119.562 57.9047 119.549 57.8425C119.498 57.6128 119.278 57.4759 119.242 57.3203C119.206 57.165 119.471 57.3975 119.219 57.0339C119.104 56.9628 119.171 57.3146 118.962 57.051C118.175 56.0562 116.931 54.0434 116.364 53.1978C115.798 52.3535 115.605 52.0884 115.286 51.5894C114.709 50.6881 114.846 51.0692 114.433 50.5479C114.018 50.0248 114.407 50.1503 114.397 50.0409C114.388 49.933 114.285 49.8798 114.243 49.7667C114.201 49.654 114.374 49.8412 114.228 49.6092C114.081 49.3771 113.578 48.8133 113.477 48.7647C113.264 48.6621 113.353 49.0108 112.979 48.3878C112.957 48.3519 113.087 48.4268 113.002 48.2913C112.326 47.2166 111.582 46.128 110.901 45.0586C110.807 44.9116 110.953 45 110.899 44.9139C110.338 44.0179 110.454 44.3964 110.018 43.9934C110.236 44.0016 110.143 43.6771 109.689 43.0161C109.417 42.6187 109.401 42.73 109.181 42.5032C109.114 42.4352 108.964 42.1248 108.9 42.094C108.689 41.9916 108.764 42.3299 108.339 41.6188C108.321 41.5875 108.438 41.647 108.37 41.5415C107.933 40.8594 107.779 40.8476 107.272 40.1333C106.875 39.5735 106.245 38.5256 105.813 37.8745C105.977 37.7814 105.523 37.1977 105.248 37.0237C104.965 36.6025 104.65 36.1548 104.387 35.7406C104.296 35.598 104.403 35.6591 104.396 35.6382C104.286 35.3179 104.059 35.2064 103.993 35.1188C103.284 34.167 102.813 33.3175 102.098 32.4348C102.073 32.4035 101.933 32.4208 101.837 32.1193C101.831 32.0996 102.09 32.3757 101.792 31.934C101.495 31.4921 100.981 30.6265 100.515 30.0491C100.403 29.9094 100.065 29.5925 99.9233 29.2488C99.9047 29.2029 99.9636 29.2266 99.9402 29.158C99.8636 28.9366 99.692 28.9048 99.6282 28.6266C99.5643 28.3483 99.3153 27.8495 98.8336 27.2756C98.8184 27.2572 98.6386 27.1664 98.5072 26.9722C98.2973 26.6621 98.0128 26.2127 97.7908 25.8909C97.6846 25.7368 97.7035 25.8691 97.6842 25.843C96.9446 24.8241 96.4811 24.0557 95.7361 22.9317C95.5995 22.7256 95.1327 22.1845 94.913 21.755C94.6712 21.2836 95.2093 21.569 94.4685 20.6127C94.1694 20.2272 93.5299 19.9183 93.1842 19.0938C92.1857 17.72 91.3711 16.3748 90.3551 15.0073C90.3094 14.9458 90.0947 14.7996 89.9939 14.6504C89.8445 14.429 89.7976 14.2833 89.6919 14.1244C89.25 13.458 88.8051 12.876 88.3736 12.2374C88.2096 11.995 88.3041 12.0541 88.1085 11.7651C87.9129 11.4763 87.7333 11.3174 87.4887 10.912C87.3042 10.6056 87.199 10.2448 86.9414 9.84685C86.8359 9.89746 86.6534 9.62797 86.3008 9.16839C86.233 9.08005 86.2676 9.20098 86.2338 9.16035C86.0957 8.99553 86.0108 8.81351 85.8774 8.65858C85.845 8.62082 85.8115 8.64101 85.7832 8.6114C85.5416 8.36038 85.2934 7.84383 85.2508 7.75515C85.0872 7.41526 84.9472 7.30014 84.804 7.05165C84.6609 6.80363 84.9258 7.13946 84.7482 6.85694C84.3799 6.27142 83.8715 5.54332 83.4752 4.96393C83.3169 4.73289 83.3837 4.91882 83.3601 4.88641C83.0218 4.41625 82.7336 3.90363 82.4702 3.69499C82.4536 3.21927 82.252 3.42117 81.8257 2.70976C81.7922 2.65367 81.8438 2.51749 82.0003 2.71373C82.1568 2.90994 82.341 3.24396 82.5607 3.51441C82.6126 3.57854 82.9737 3.90215 83.016 3.9511C83.3466 4.33492 83.2368 4.49694 83.2436 4.5246C83.3256 4.83482 83.7537 5.23922 83.847 5.35914C84.273 5.90807 84.5859 6.4081 84.9385 6.86974C85.169 7.17178 85.2912 7.13284 85.4574 7.38011C86.0105 8.20188 86.0633 8.58509 86.7177 9.26786C86.858 9.41432 86.8579 9.173 87.1768 9.82405C87.1969 9.86488 87.4176 10.3593 87.6441 10.5768C87.6726 10.6041 87.7052 10.5802 87.7369 10.6202C87.9492 10.8887 88.0521 11.0943 88.2763 11.3916C88.5005 11.6888 88.7741 12.0435 89.0042 12.4007C89.1429 12.6158 89.2664 12.9295 89.3205 13.0409C89.4722 13.3564 89.7564 13.6112 89.8238 13.8249C89.8917 14.0405 89.5691 13.7496 89.8548 14.2408C89.9558 14.1969 90.0747 14.1737 90.1836 14.1399C90.8867 15.1636 91.5521 16.1891 92.2644 17.2117C92.3528 17.3384 92.3122 17.1746 92.4083 17.3095C92.8136 17.8788 93.1253 18.4051 93.5515 18.9915C93.8816 19.4453 94.2847 19.9145 94.6321 20.3874C94.7283 20.7561 95.2596 21.4469 95.6093 21.9738C95.7318 22.1583 95.6942 22.1662 95.7742 22.3023C96.0766 22.8155 96.0152 22.5199 96.1231 22.6434C96.5861 23.1732 96.3998 23.3738 96.873 24.0484C96.8979 24.0843 97.3196 24.442 97.3689 24.4973C97.6827 24.8483 97.3715 24.5893 97.5288 24.8358C97.8161 25.2858 97.998 25.6107 98.389 26.1017C98.5031 26.2448 98.8274 26.5533 98.9707 26.8849C98.9895 26.9285 98.9349 26.9348 98.9539 26.9673C99.3007 27.5534 99.437 27.4815 99.7008 27.7713C99.9648 28.0611 100.218 28.6146 100.262 28.7325C100.378 29.0403 100.095 28.5504 100.079 28.5406C99.8871 28.426 100.149 28.777 100.332 29.0565C100.234 29.1824 100.507 29.5623 100.523 29.346C100.524 29.3218 100.364 29.1157 100.332 29.0565C100.621 29.2137 100.93 29.6249 101.137 30.1714C101.233 30.4273 101.027 30.2642 101.508 30.9126C101.726 31.2068 101.734 31.0302 101.941 31.2797C102.416 31.8495 102.878 32.6953 103.324 33.3128C103.485 33.5368 103.381 33.2819 103.494 33.4338C103.792 33.8369 104.006 34.2256 104.311 34.6266C104.339 34.6629 104.327 34.5358 104.416 34.6641C105.097 35.6355 105.651 36.5079 106.354 37.5274C106.694 38.0199 107.332 38.8797 107.679 39.3936C108.28 40.2839 108.952 41.4253 109.493 42.1674C109.846 42.6514 109.826 42.5058 110.009 42.6912C110.363 43.0483 110.731 43.8581 110.778 43.9692C110.779 43.9726 110.474 43.5578 110.602 43.8033C110.633 43.9753 110.774 43.9646 110.778 43.9692C110.809 44.0419 111.381 44.8971 111.508 45.0579C111.577 45.1453 111.594 45.058 111.629 45.1042C112.459 46.2034 113.257 47.3271 114.026 48.492C114.039 48.5129 113.958 48.524 113.989 48.5727C114.421 49.2558 114.789 49.6305 115.213 50.1478C115.636 50.6651 115.923 51.1095 116.041 51.5065C116.34 51.9107 116.704 52.5361 116.911 52.8973C117.118 53.2584 117.272 53.2228 117.295 53.2511C118.02 54.1349 118.325 54.7239 118.986 55.7034C119.301 56.1691 119.952 57.0732 120.312 57.5639C120.597 57.9517 120.732 58.2099 121.003 58.5613C121.039 58.6088 121.061 58.5207 121.073 58.5342C121.422 58.8946 121.15 58.7933 121.183 58.894C121.305 59.2594 121.387 59.4802 121.789 59.9722C121.881 60.0858 122.322 60.2991 122.485 60.5098C122.697 60.7841 122.551 60.7258 122.775 61.0118C122.794 61.0363 122.834 61.0007 122.96 61.1858C123.543 62.0448 124.161 62.9931 124.78 63.8768C124.864 63.9977 124.828 63.7934 124.951 63.9671C125.528 64.7823 126.15 65.6838 126.67 66.507C126.798 66.7098 126.662 66.6213 126.676 66.6744C126.766 66.9996 127.157 67.2807 127.202 67.3403C128.281 68.7607 128.936 69.9655 130.028 71.4185C130.088 71.4975 130.668 72.022 130.736 72.3876C130.741 72.4125 130.802 72.7774 131.06 72.9609C131.076 72.9722 131.023 72.7544 131.225 73.0593C131.426 73.3642 131.806 73.8165 132.018 74.2799C132.085 74.4265 132.168 74.8251 132.542 75.1434C132.567 75.164 133.22 75.6032 133.206 75.93C133.203 75.9833 133.005 76.0657 133.416 76.4701C133.495 76.5471 133.422 76.3592 133.608 76.5768C133.894 76.9099 134.176 77.4174 134.56 77.8049C134.627 77.8724 134.973 78.1179 135.065 78.4424C135.079 78.4933 134.966 78.4554 135.056 78.5985C135.481 79.2797 135.999 79.9431 136.422 80.6409C136.572 80.8879 136.392 80.8326 136.537 81.0976C136.683 81.3626 137.003 81.8783 137.226 82.1068C137.449 82.3354 137.407 81.9469 137.688 82.3261C138.91 83.9741 139.976 85.7058 141.128 87.3983C141.299 87.6493 141.213 87.4034 141.469 87.7704C142.413 89.1236 144.091 91.4265 144.782 92.6882C145.336 93.6995 144.439 92.5645 144.897 93.3132C145.118 93.6745 145.569 93.92 145.633 93.9998C146.262 94.7778 146.572 95.4059 147.109 96.1261C147.22 96.2748 147.195 96.0716 147.288 96.1987C147.609 96.6323 147.897 97.1219 148.197 97.5408C148.331 97.7286 148.367 97.6523 148.484 97.8301C148.763 98.2553 148.994 98.6424 149.22 99.089C149.24 99.1297 148.991 98.9309 149.203 99.2423C149.545 99.746 149.919 100.407 150.376 100.943C150.512 101.102 150.657 101.012 150.814 101.446C150.848 101.537 150.611 101.554 151.053 101.882C151.127 101.938 151.822 102.521 151.94 102.962C151.971 103.078 151.996 103.411 152.16 103.601C152.183 103.627 152.182 103.463 152.307 103.628C152.748 104.211 153.175 104.846 153.627 105.446C153.747 105.606 153.657 105.307 153.834 105.547C154.322 106.208 154.886 107.064 155.319 107.741C155.478 107.991 155.295 107.869 155.3 107.891C155.379 108.257 155.655 108.316 155.73 108.404C156.193 108.953 156.428 109.452 156.823 109.98C156.932 110.126 156.935 109.968 156.963 109.993C157.243 110.255 156.946 110.12 157.066 110.326C157.403 110.903 157.831 111.509 158.225 112.055C158.37 112.256 158.301 111.966 158.43 112.147C159.194 113.215 159.964 114.343 160.644 115.432C160.772 115.636 160.615 115.56 160.628 115.612C160.713 115.975 161.156 116.287 161.237 116.373C161.607 116.764 161.662 116.977 161.941 117.355C163.306 119.2 164.879 121.556 166.085 123.354C167.659 125.696 168.835 127.544 170.385 129.744C170.483 129.883 170.485 129.673 170.571 129.793C171.679 131.341 172.707 132.907 173.823 134.455C173.914 134.582 173.882 134.33 174.032 134.532C174.341 134.945 174.708 135.485 174.974 135.934C175.103 136.153 174.826 135.93 174.958 136.15C175.266 136.66 175.623 137.19 175.987 137.682C176.142 137.891 176.018 137.5 176.212 137.777C177.535 139.664 178.844 141.511 180.038 143.516C180.12 143.654 179.992 143.912 180.225 144.164C180.297 144.145 180.365 144.097 180.433 144.064C182.377 146.798 184.196 149.578 186.1 152.352C186.18 152.469 186.155 152.189 186.311 152.415C187.215 153.722 188.127 154.968 188.938 156.384C189.018 156.524 188.767 156.596 189.068 156.966C189.122 157.031 189.556 157.601 189.706 157.723C189.727 157.739 189.749 157.566 189.883 157.753C190.661 158.846 191.44 160.015 192.142 161.157C192.256 161.341 192.021 161.223 192.101 161.355C192.667 162.29 193.421 163.212 193.92 164.135C194.253 164.753 193.925 164.664 193.958 165.092C193.962 165.153 194.204 165.511 194.112 165.601C193.884 165.828 193.48 165.852 193.25 166.114C193.212 166.157 193.436 166.425 193.385 166.461C193.385 166.461 193.385 166.461 193.385 166.461C193.369 166.471 193.33 166.462 193.253 166.42C193.23 166.407 192.945 166.093 192.838 166.042C192.763 166.005 192.731 166.185 192.605 166.093C192.479 166.002 192.476 165.808 192.288 165.642C192.1 165.476 192.04 165.647 191.753 165.255ZM117.844 54.5234C118.003 54.8801 118.251 54.7789 117.963 54.4723C117.949 54.4576 117.835 54.5051 117.844 54.5234ZM91.4263 16.2671C91.6399 16.7298 91.9401 16.9406 91.7941 16.611C91.6478 16.2816 91.3609 16.1263 91.4263 16.2671ZM88.42 12.0125C88.6987 12.5333 88.9727 12.4572 88.5707 11.9705C88.5474 11.9421 88.4037 11.982 88.42 12.0125ZM192.931 163.71C192.929 163.718 193.101 163.977 193.11 163.98C193.32 164.036 192.977 163.518 192.931 163.71ZM85.436 7.791C85.5112 7.96176 85.8434 8.37374 85.7501 8.16151C85.675 7.99077 85.3423 7.57846 85.436 7.791ZM128.969 71.1993C128.969 71.2068 129.092 71.3925 129.109 71.3751C129.165 71.3182 128.971 71.0754 128.969 71.1993ZM80.4547 0.554077C81.1834 1.62829 81.4625 2.39136 80.682 1.21261C80.5406 0.999238 81.0465 1.63151 80.8771 1.35266C80.5665 0.842782 80.2399 0.586844 79.9506 0.0474952C79.8981 -0.0500894 80.4134 0.492593 80.4563 0.55582C80.4557 0.555221 80.4552 0.55464 80.4547 0.554077ZM117.711 54.883C117.713 54.8913 117.885 55.1474 117.892 55.1515C118.055 55.2421 117.708 54.7265 117.711 54.883ZM136.176 82.0191C136.178 82.038 136.577 82.6327 136.596 82.6474C136.939 82.8647 136.134 81.6627 136.176 82.0191ZM105.81 37.8615C105.558 37.626 105.324 37.2986 105.249 37.025C105.434 37.3036 105.623 37.5816 105.81 37.8615Z" fill="white"/>
<path d="M175.912 145.693C174.483 144.933 171.953 143.427 169.652 142.015C167.346 140.601 165.266 139.279 164.753 138.894C164.376 138.611 163.536 138.007 162.851 137.549C158.999 134.979 153.52 130.007 150.532 126.411C145.908 120.848 142.989 115.7 140.053 107.883C136.874 99.4196 132.611 91.487 127.866 85.1914C126.99 84.0292 125.22 82.0941 123.413 80.2538C121.606 78.4136 119.767 76.6725 118.752 75.8967C118.003 75.324 117.17 74.6866 116.884 74.4266C116.744 74.3001 116.429 74.0699 116.032 73.7941C115.637 73.519 115.164 73.2002 114.713 72.8975C113.804 72.2871 112.69 71.5268 112.251 71.205C111.316 70.5193 109.913 69.8029 104.074 66.9789C101.648 65.8058 100.482 65.2427 99.2485 64.8379C98.0143 64.4329 96.7114 64.1855 94.0125 63.6461C84.0196 61.6487 75.5229 62.5221 68.4439 66.2625C66.8257 67.1175 65.7372 67.7428 64.7722 68.4422C63.8075 69.1414 62.9643 69.9152 61.8376 71.0669C58.1849 74.8001 55.3108 78.9377 53.0933 83.7584C52.3794 85.3105 51.5345 87.7964 50.8215 90.2937C50.1084 92.7913 49.5284 95.2964 49.3427 96.8858C48.4385 104.627 49.1087 111.738 52.5979 118.493C53.1345 119.532 53.5728 120.483 53.8635 121.217C54.0089 121.584 54.1184 121.897 54.1843 122.14C54.2172 122.262 54.239 122.368 54.2498 122.454C54.2603 122.538 54.2609 122.611 54.244 122.663L54.2219 122.732C54.2051 122.785 54.1624 122.843 54.1046 122.906C54.0457 122.969 53.9665 123.043 53.8689 123.122C53.6736 123.282 53.4019 123.473 53.0702 123.686C52.4065 124.113 51.4962 124.631 50.455 125.163C43.6825 128.623 38.3926 133.821 34.6203 140.638C33.8456 142.038 32.8581 144.412 31.9831 146.858C31.1082 149.303 30.3473 151.816 30.0237 153.493C29.0187 158.703 28.9447 163.74 29.7396 168.902C29.9848 170.494 30.2196 171.614 30.5965 172.745C30.9737 173.875 31.494 175.018 32.3115 176.656C35.8876 183.819 42.2869 189.477 51.5736 193.673C54.0815 194.807 55.2837 195.365 56.5228 195.755C57.7616 196.144 59.0379 196.366 61.6932 196.825C68.0845 197.93 69.6417 198.163 70.8013 198.151C71.3455 198.145 72.6934 198.175 73.7881 198.209C74.331 198.225 74.9008 198.242 75.3824 198.249C75.8656 198.256 76.2569 198.253 76.4437 198.231C76.8279 198.186 77.8754 198.153 78.8178 198.124C80.0944 198.084 82.6038 197.74 85.1445 197.297C87.685 196.853 90.2512 196.311 91.6402 195.877C99.1639 193.522 107.25 189.557 114.763 184.528C121.703 179.884 127.073 177.399 134.071 175.57C138.595 174.387 145.944 173.536 150.573 173.69C151.396 173.718 152.43 173.715 152.901 173.705C153.542 173.69 156.004 173.827 158.702 174.02C161.397 174.213 164.332 174.463 165.936 174.677L191.826 167.027L175.912 145.693Z" fill="white" stroke="white" stroke-width="0.1"/>
<path d="M191.516 170.514C190.444 170.87 189.013 171.248 187.919 171.512C187.576 171.595 187.724 171.47 187.487 171.524C187.022 171.629 186.607 171.792 186.146 171.89C185.993 171.923 186.144 171.75 185.984 171.786C185.11 171.988 184.307 172.259 183.43 172.491C179.11 173.637 174.888 174.843 170.537 176.079C169.103 176.486 167.335 176.902 165.872 177.385C165.702 177.441 165.833 177.507 165.803 177.525C165.325 177.799 165.438 177.553 165.094 177.627C163.731 177.921 162.247 178.354 160.975 178.772C160.434 178.95 161.038 178.976 160.457 179.033C160.416 179.037 160.525 178.896 160.372 178.929C160.025 179.006 159.387 179.216 159.122 179.286C158.61 179.421 158.527 179.447 158.047 179.588C157.391 179.781 156.597 179.964 155.9 180.195C155.752 180.245 155.981 180.287 155.747 180.376C155.512 180.464 154.876 180.644 154.655 180.684C154.434 180.723 154.502 180.617 154.458 180.61C154.101 180.549 153.432 180.98 153.339 181.013C151.646 181.613 150.135 181.932 148.521 182.413C147.296 182.778 145.997 183.207 144.829 183.548C143.438 183.955 142.245 184.253 140.898 184.663C140.756 184.707 140.957 184.77 140.783 184.823C138.939 185.385 137.099 185.918 135.237 186.391C135.05 186.438 135.259 186.271 135.07 186.312C133.918 186.568 132.076 186.914 131.53 187.529C130.76 187.74 129.827 187.999 129.118 188.12C128.661 188.198 129.058 187.968 128.53 188.173C128.411 188.22 128.596 188.262 128.416 188.324C127.654 188.587 126.802 188.809 126.053 189.082C125.9 189.138 125.967 189.205 125.927 189.232C125.592 189.458 124.919 189.45 124.781 189.476C123.728 189.676 122.994 189.94 122.042 190.22C121.821 190.286 122.113 190.313 121.902 190.38C120.804 190.722 119.659 191.053 118.566 191.328C118.323 191.389 118.517 191.235 118.4 191.259C117.882 191.369 117.819 191.569 117.324 191.678C117.219 191.701 117.254 191.608 117.233 191.606C116.902 191.563 116.704 191.822 116.63 191.849C115.696 192.186 115.032 192.177 114.123 192.478C114.014 192.514 114.29 192.534 113.982 192.63C111.934 193.268 109.751 193.889 107.695 194.423C107.375 194.506 107.58 194.37 107.558 194.368C107.194 194.333 107.037 194.572 106.936 194.61C106.136 194.9 105.332 194.98 104.841 195.353C101.373 196.309 97.9754 197.444 94.5038 198.285C94.4597 198.296 94.5131 198.191 94.4252 198.213C93.3676 198.479 93.6063 198.546 92.9617 198.907C92.7993 198.997 92.214 198.969 92.1631 198.969C91.9774 198.97 92.1183 198.797 92.0582 198.804C91.5627 198.869 91.759 199.244 91.1211 199.434C91.1009 199.44 91.1628 199.342 91.1071 199.35C90.934 199.377 90.7777 199.455 90.6074 199.479C90.2175 199.532 90.0274 199.38 89.492 199.662C89.4243 199.698 89.6013 199.888 89.0285 200.047C88.8001 200.11 87.7961 200.414 87.5101 200.483C87.2245 200.553 87.3963 200.424 87.3753 200.427C86.5892 200.559 86.8649 200.434 86.4436 200.409C86.0227 200.385 86.2267 200.683 86.0829 200.766C85.9388 200.849 85.36 200.938 85.2155 200.952C85.071 200.966 85.2278 200.87 85.1019 200.891C84.2678 201.034 84.7974 201.16 84.5478 201.291C83.9593 201.6 83.3999 201.503 82.8207 201.651C82.664 201.691 82.8067 201.708 82.6704 201.754C82.1301 201.937 81.7793 201.961 81.1785 202.215C81.0803 202.256 80.6207 202.549 80.2642 202.541C80.2136 202.54 80.3267 202.442 80.09 202.498C79.7364 202.582 79.1062 202.757 78.7383 202.888C78.4668 202.985 78.812 202.987 78.4556 203.061C78.2973 203.094 78.5664 202.952 78.2703 203.018C77.9758 203.084 77.2391 203.307 76.959 203.393C76.6795 203.479 76.8546 203.505 76.8334 203.517C76.7048 203.586 76.1776 203.781 76.13 203.795C73.7358 204.519 71.49 205.06 69.1686 205.796C68.9864 205.854 69.1304 205.891 69.1028 205.901C68.4851 206.118 68.9209 205.776 68.4635 205.842C68.5713 205.971 68.3048 206.022 67.8681 206.17C67.6577 206.242 67.7908 206.264 67.7731 206.276C67.4836 206.457 67.2302 206.41 67.1668 206.404C66.9326 206.383 66.7349 206.55 66.5759 206.536C66.4171 206.523 66.7193 206.342 66.2963 206.47C66.1933 206.558 66.5489 206.602 66.234 206.72C65.0459 207.166 62.7491 207.735 61.7706 208.016C60.7939 208.296 60.4823 208.399 59.9095 208.55C58.8751 208.824 59.2799 208.809 58.657 209.044C58.0322 209.279 58.2707 208.947 58.1635 208.923C58.0581 208.898 57.9757 208.98 57.8552 208.986C57.7351 208.991 57.9663 208.884 57.7007 208.952C57.435 209.02 56.7442 209.327 56.6671 209.408C56.5042 209.58 56.8634 209.602 56.1557 209.768C56.115 209.777 56.2261 209.676 56.0711 209.715C54.841 210.031 53.5771 210.406 52.3505 210.728C52.1819 210.772 52.3108 210.66 52.2124 210.685C51.1877 210.945 51.5835 210.95 51.0665 211.242C51.1408 211.037 50.8035 211.027 50.0354 211.256C49.5736 211.394 49.6748 211.443 49.3915 211.584C49.3065 211.626 48.965 211.674 48.916 211.726C48.754 211.895 49.099 211.927 48.2921 212.114C48.2567 212.122 48.3492 212.029 48.228 212.061C47.4448 212.269 47.3864 212.412 46.5515 212.676C45.897 212.883 44.7066 213.162 43.9545 213.375C43.9162 213.189 43.2216 213.443 42.9717 213.652C42.4842 213.792 41.9615 213.956 41.4867 214.079C41.3234 214.122 41.4142 214.039 41.3921 214.039C41.0536 214.046 40.8779 214.228 40.7744 214.264C39.6511 214.648 38.6985 214.836 37.6394 215.247C37.6019 215.262 37.5755 215.4 37.2592 215.399C37.2386 215.399 37.5805 215.237 37.069 215.385C36.5572 215.533 35.5761 215.758 34.8839 216.024C34.7164 216.089 34.3113 216.314 33.9408 216.343C33.8915 216.347 33.9321 216.298 33.8595 216.299C33.6253 216.305 33.5426 216.458 33.2582 216.434C32.9738 216.41 32.4226 216.494 31.7289 216.777C31.7067 216.786 31.5653 216.929 31.3402 216.995C30.9808 217.1 30.4659 217.234 30.0916 217.347C29.9124 217.401 30.0442 217.423 30.0134 217.433C28.8171 217.826 27.9437 218.032 26.6457 218.398C26.4078 218.465 25.7499 218.744 25.2737 218.821C24.7509 218.907 25.1872 218.482 24.0502 218.895C23.5917 219.062 23.102 219.576 22.2113 219.653C20.5979 220.184 19.068 220.548 17.4553 221.097C17.3828 221.122 17.1779 221.281 17.0051 221.332C16.7485 221.406 16.5955 221.406 16.4119 221.458C15.6423 221.675 14.9521 221.921 14.212 222.136C13.9311 222.218 14.0164 222.146 13.6813 222.244C13.3465 222.342 13.1404 222.465 12.6795 222.573C12.3314 222.655 11.9557 222.645 11.4981 222.769C11.514 222.885 11.2016 222.976 10.6562 223.171C10.5513 223.209 10.677 223.213 10.628 223.232C10.4289 223.314 10.2296 223.339 10.0413 223.418C9.99543 223.438 10.0044 223.476 9.96758 223.494C9.65469 223.647 9.08698 223.725 8.9895 223.739C8.61587 223.79 8.46344 223.888 8.18306 223.949C7.90316 224.009 8.30392 223.86 7.98061 223.942C7.31051 224.114 6.46181 224.375 5.78897 224.575C5.52058 224.655 5.71804 224.649 5.67996 224.661C5.12884 224.84 4.55265 224.957 4.27345 225.144C3.81544 225.014 3.94602 225.268 3.1383 225.456C3.07466 225.471 2.96079 225.38 3.1955 225.291C3.43017 225.202 3.80452 225.129 4.12922 225.003C4.20615 224.973 4.62468 224.728 4.68422 224.703C5.15076 224.505 5.27144 224.659 5.29986 224.661C5.62029 224.678 6.13627 224.394 6.27896 224.342C6.93186 224.105 7.50364 223.96 8.051 223.765C8.40907 223.638 8.40938 223.51 8.69565 223.427C9.64718 223.152 10.0282 223.219 10.8784 222.805C11.0607 222.716 10.831 222.642 11.5483 222.538C11.5934 222.531 12.1316 222.472 12.408 222.323C12.4427 222.304 12.4299 222.266 12.4777 222.248C12.7982 222.128 13.0254 222.093 13.377 221.97C13.7286 221.848 14.15 221.696 14.5604 221.586C14.8077 221.52 15.1441 221.498 15.2667 221.481C15.6135 221.433 15.943 221.24 16.1671 221.241C16.3931 221.243 16.0174 221.461 16.5725 221.339C16.5616 221.229 16.5759 221.109 16.577 220.995C17.7667 220.639 18.9466 220.319 20.138 219.954C20.2857 219.908 20.1173 219.897 20.2752 219.846C20.9411 219.635 21.5376 219.499 22.2262 219.272C22.7592 219.097 23.3293 218.857 23.8858 218.671C24.2662 218.692 25.0864 218.397 25.695 218.225C25.9082 218.165 25.9042 218.203 26.0582 218.169C26.6393 218.038 26.3391 218.006 26.4896 217.941C27.1357 217.662 27.2697 217.901 28.0567 217.657C28.0985 217.644 28.568 217.352 28.6357 217.322C29.0659 217.131 28.7241 217.348 29.0069 217.273C29.5233 217.137 29.8882 217.064 30.4752 216.842C30.6464 216.777 31.0393 216.562 31.3989 216.527C31.4462 216.523 31.4355 216.577 31.4722 216.568C32.1363 216.417 32.1095 216.266 32.4661 216.103C32.8227 215.941 33.4273 215.868 33.553 215.863C33.8815 215.846 33.3285 215.966 33.3142 215.979C33.1464 216.126 33.5606 215.984 33.8828 215.895C33.9728 216.027 34.4178 215.884 34.2167 215.803C34.194 215.794 33.9491 215.883 33.8828 215.895C34.1209 215.668 34.6068 215.5 35.1903 215.47C35.4635 215.457 35.2452 215.603 36.0097 215.343C36.3566 215.225 36.1907 215.164 36.4916 215.043C37.1792 214.766 38.1261 214.584 38.8502 214.349C39.1129 214.264 38.8384 214.285 39.0173 214.224C39.4922 214.064 39.9279 213.979 40.4029 213.811C40.446 213.796 40.3213 213.768 40.4709 213.722C41.604 213.371 42.604 213.11 43.7897 212.753C44.3626 212.58 45.3762 212.236 45.9715 212.063C47.0031 211.763 48.2955 211.471 49.1673 211.183C49.736 210.996 49.5913 210.97 49.8238 210.853C50.2721 210.625 51.1558 210.522 51.2758 210.511C51.2795 210.511 50.791 210.675 51.0639 210.628C51.2374 210.651 51.2704 210.513 51.2758 210.511C51.3545 210.504 52.3438 210.221 52.5356 210.149C52.6399 210.11 52.5621 210.067 52.6168 210.048C53.9171 209.594 55.2312 209.178 56.5754 208.802C56.5992 208.796 56.5849 208.877 56.6408 208.862C57.4234 208.66 57.8927 208.424 58.5148 208.179C59.1369 207.934 59.6475 207.797 60.0617 207.806C60.5381 207.644 61.2447 207.49 61.6519 207.403C62.0591 207.316 62.0723 207.159 62.1064 207.145C63.1695 206.725 63.8236 206.615 64.9583 206.285C65.4977 206.129 66.5579 205.785 67.1351 205.592C67.5913 205.44 67.8786 205.39 68.2959 205.24C68.3524 205.219 68.275 205.172 68.2918 205.164C68.7414 204.943 68.5618 205.171 68.6679 205.169C69.053 205.165 69.2884 205.155 69.8797 204.923C70.0161 204.869 70.354 204.515 70.6045 204.424C70.9305 204.306 70.8304 204.427 71.1711 204.302C71.2002 204.291 71.1787 204.242 71.3933 204.179C72.3894 203.887 73.4813 203.588 74.5119 203.27C74.6528 203.226 74.4472 203.198 74.6502 203.134C75.603 202.834 76.6514 202.518 77.5943 202.274C77.8265 202.215 77.7005 202.317 77.7555 202.32C78.0928 202.333 78.4798 202.047 78.5503 202.023C80.2328 201.43 81.5801 201.175 83.2975 200.579C83.391 200.547 84.0679 200.155 84.4366 200.202C84.4617 200.205 84.8281 200.258 85.0815 200.069C85.0973 200.057 84.8738 200.04 85.2256 199.942C85.5775 199.844 86.1243 199.621 86.6303 199.56C86.7905 199.541 87.1955 199.584 87.6129 199.325C87.6401 199.308 88.258 198.82 88.5648 198.934C88.6147 198.953 88.6325 199.166 89.1432 198.899C89.2406 198.848 89.0394 198.86 89.3035 198.749C89.7081 198.579 90.2777 198.465 90.7639 198.218C90.8486 198.175 91.1882 197.921 91.5253 197.933C91.578 197.935 91.5075 198.03 91.6712 197.989C92.4498 197.792 93.2399 197.502 94.0336 197.313C94.3146 197.245 94.2069 197.4 94.5037 197.342C94.8005 197.285 95.3892 197.138 95.6751 196.996C95.961 196.853 95.5783 196.774 96.0253 196.623C97.9681 195.963 99.9429 195.478 101.907 194.899C102.198 194.813 101.937 194.82 102.365 194.688C103.942 194.204 106.648 193.31 108.061 193.038C109.193 192.82 107.838 193.327 108.691 193.12C109.102 193.02 109.474 192.666 109.57 192.629C110.503 192.268 111.196 192.165 112.045 191.874C112.221 191.814 112.02 191.776 112.169 191.725C112.68 191.553 113.234 191.429 113.725 191.271C113.945 191.201 113.883 191.143 114.088 191.087C114.579 190.951 115.018 190.849 115.512 190.771C115.557 190.764 115.292 190.94 115.653 190.834C116.237 190.662 116.98 190.508 117.631 190.237C117.823 190.156 117.782 189.991 118.244 189.973C118.341 189.97 118.285 190.2 118.732 189.88C118.808 189.826 119.576 189.343 120.031 189.366C120.151 189.372 120.476 189.449 120.707 189.351C120.739 189.337 120.582 189.288 120.778 189.22C121.468 188.979 122.203 188.766 122.912 188.52C123.102 188.454 122.789 188.448 123.072 188.353C123.85 188.09 124.838 187.815 125.615 187.611C125.901 187.535 125.729 187.672 125.752 187.674C126.124 187.711 126.265 187.466 126.372 187.422C127.036 187.149 127.583 187.078 128.207 186.863C128.379 186.804 128.229 186.753 128.261 186.734C128.597 186.547 128.378 186.789 128.61 186.737C129.262 186.593 129.97 186.37 130.611 186.163C130.846 186.087 130.549 186.063 130.761 185.996C132.012 185.595 133.321 185.207 134.565 184.892C134.8 184.833 134.679 184.959 134.733 184.963C135.104 184.993 135.536 184.667 135.643 184.616C136.129 184.384 136.348 184.396 136.793 184.246C138.967 183.511 141.691 182.734 143.772 182.135C146.483 181.353 148.603 180.799 151.171 179.996C151.334 179.945 151.135 179.879 151.275 179.834C153.087 179.252 154.894 178.753 156.708 178.164C156.857 178.115 156.608 178.069 156.845 177.988C157.333 177.821 157.959 177.637 158.468 177.521C158.717 177.464 158.42 177.66 158.669 177.601C159.249 177.464 159.863 177.287 160.442 177.09C160.689 177.007 160.279 177.005 160.602 176.905C162.803 176.223 164.962 175.541 167.236 175.018C167.392 174.982 167.599 175.183 167.91 175.038C167.914 174.964 167.889 174.885 167.878 174.81C171.076 173.795 174.279 172.913 177.502 171.949C177.638 171.908 177.364 171.847 177.627 171.767C179.148 171.307 180.613 170.82 182.209 170.48C182.367 170.447 182.359 170.708 182.803 170.534C182.882 170.503 183.557 170.264 183.719 170.158C183.741 170.143 183.582 170.07 183.802 170C185.08 169.593 186.432 169.209 187.733 168.889C187.943 168.838 187.759 169.025 187.909 168.989C188.973 168.736 190.081 168.3 191.112 168.108C191.803 167.98 191.618 168.265 192.036 168.365C192.095 168.379 192.51 168.259 192.567 168.373C192.713 168.66 192.612 169.052 192.792 169.351C192.821 169.401 193.145 169.269 193.163 169.329C193.163 169.329 193.163 169.329 193.163 169.329C193.169 169.347 193.147 169.381 193.084 169.442C193.065 169.46 192.679 169.635 192.597 169.721C192.54 169.781 192.701 169.867 192.575 169.959C192.449 170.051 192.264 169.994 192.048 170.122C191.833 170.251 191.977 170.36 191.516 170.514ZM63.4854 207.012C63.8737 206.97 63.8531 206.703 63.4732 206.883C63.4548 206.892 63.4654 207.015 63.4854 207.012ZM18.9824 220.463C19.4883 220.401 19.7808 220.179 19.4223 220.217C19.064 220.256 18.8283 220.482 18.9824 220.463ZM14.0121 222.023C14.5933 221.917 14.6046 221.633 14.0182 221.867C13.9841 221.881 13.9782 222.03 14.0121 222.023ZM190.406 168.919C190.413 168.923 190.712 168.839 190.717 168.832C190.835 168.648 190.237 168.817 190.406 168.919ZM9.08029 223.573C9.26585 223.554 9.75971 223.364 9.52912 223.387C9.34358 223.407 8.84926 223.597 9.08029 223.573ZM82.7648 201.521C82.7719 201.523 82.9864 201.463 82.9751 201.441C82.9381 201.37 82.6476 201.481 82.7648 201.521ZM0.666604 226.102C1.9122 225.737 2.72409 225.705 1.3631 226.087C1.11669 226.157 1.87342 225.868 1.5561 225.944C0.975649 226.084 0.632109 226.317 0.0301061 226.427C-0.0788437 226.447 0.595419 226.123 0.668732 226.101C0.668003 226.102 0.667293 226.102 0.666604 226.102ZM63.7872 207.249C63.7956 207.25 64.0919 207.164 64.098 207.159C64.2341 207.031 63.6372 207.204 63.7872 207.249ZM95.2704 197.969C95.2892 197.972 95.9772 197.775 95.9973 197.76C96.309 197.5 94.9183 197.899 95.2704 197.969ZM43.9412 213.373C43.6401 213.541 43.2567 213.664 42.9732 213.652C43.295 213.561 43.6178 213.465 43.9412 213.373Z" fill="white"/>
<path d="M168.047 179.613C166.886 180.74 164.679 182.689 162.631 184.448C160.579 186.21 158.684 187.787 158.16 188.157C157.775 188.43 156.943 189.044 156.299 189.557C152.673 192.438 146.263 196.133 141.926 197.879C135.215 200.579 129.422 201.784 121.081 202.189C112.051 202.627 103.194 204.258 95.7493 206.85C94.3749 207.329 91.991 208.423 89.6863 209.58C87.3816 210.737 85.1613 211.956 84.1123 212.685C83.3379 213.223 82.4762 213.821 82.1412 214.014C81.9782 214.108 81.6625 214.338 81.2786 214.631C80.8958 214.924 80.4477 215.276 80.0214 215.613C79.1622 216.292 78.0978 217.12 77.6572 217.439C76.7183 218.12 75.6071 219.236 71.1324 223.932C69.2737 225.883 68.3809 226.821 67.6181 227.871C66.8551 228.923 66.221 230.087 64.8819 232.492C59.9238 241.395 58.1566 249.752 59.5525 257.635C59.8716 259.438 60.134 260.665 60.5047 261.798C60.8753 262.93 61.3542 263.97 62.106 265.395C64.5431 270.014 67.6034 274.016 71.5147 277.602C72.7741 278.756 74.8825 280.321 77.042 281.764C79.2018 283.206 81.4095 284.525 82.8659 285.188C89.9598 288.416 96.9351 289.953 104.433 288.697C105.586 288.504 106.626 288.378 107.414 288.325C107.807 288.299 108.139 288.291 108.391 288.303C108.517 288.308 108.624 288.32 108.709 288.336C108.793 288.352 108.862 288.374 108.907 288.406L108.966 288.448C109.011 288.48 109.053 288.538 109.095 288.612C109.138 288.688 109.183 288.786 109.229 288.903C109.321 289.138 109.42 289.455 109.522 289.836C109.726 290.599 109.94 291.624 110.128 292.778C111.351 300.284 114.682 306.91 120.018 312.587C121.114 313.753 123.073 315.419 125.133 317C127.194 318.581 129.354 320.074 130.852 320.895C135.505 323.445 140.277 325.056 145.435 325.878C147.026 326.132 148.164 326.251 149.355 326.238C150.547 326.225 151.795 326.079 153.604 325.801C161.518 324.588 168.862 320.225 175.697 312.667C177.543 310.626 178.443 309.652 179.193 308.592C179.943 307.532 180.544 306.384 181.793 303.997C184.8 298.25 185.499 296.839 185.841 295.731C186.002 295.211 186.443 293.937 186.81 292.905C186.992 292.393 187.182 291.856 187.336 291.399C187.49 290.941 187.607 290.568 187.643 290.383C187.718 290.004 188.007 288.996 188.268 288.09C188.62 286.863 189.06 284.368 189.415 281.814C189.77 279.259 190.039 276.65 190.05 275.195C190.11 267.312 188.807 258.401 186.318 249.709C184.019 241.681 183.296 235.808 183.694 228.586C183.952 223.918 185.389 216.66 186.952 212.301C187.23 211.525 187.544 210.54 187.678 210.088C187.86 209.473 188.744 207.172 189.753 204.662C190.761 202.155 191.896 199.437 192.59 197.975L193.226 170.986L168.047 179.613Z" fill="white" stroke="white" stroke-width="0.1"/>
<path d="M196.451 172.348C196.462 173.477 196.384 174.955 196.301 176.078C196.275 176.43 196.201 176.25 196.18 176.493C196.138 176.968 196.166 177.412 196.119 177.881C196.103 178.037 195.985 177.84 195.971 178.004C195.896 178.897 195.907 179.745 195.86 180.651C195.63 185.114 195.487 189.504 195.333 194.023C195.282 195.513 195.137 197.323 195.149 198.864C195.15 199.044 195.254 198.939 195.261 198.973C195.376 199.512 195.177 199.33 195.142 199.679C195.005 201.067 194.963 202.612 194.972 203.951C194.976 204.52 195.185 203.953 195.062 204.524C195.054 204.564 194.952 204.417 194.937 204.573C194.905 204.927 194.909 205.599 194.894 205.873C194.867 206.401 194.866 206.488 194.854 206.988C194.836 207.672 194.767 208.484 194.775 209.218C194.777 209.374 194.887 209.169 194.9 209.419C194.912 209.669 194.889 210.33 194.859 210.553C194.829 210.775 194.749 210.678 194.729 210.718C194.562 211.039 194.767 211.808 194.77 211.906C194.824 213.702 194.665 215.238 194.629 216.922C194.602 218.2 194.613 219.568 194.581 220.784C194.542 222.233 194.461 223.46 194.44 224.868C194.438 225.016 194.559 224.844 194.557 225.026C194.528 226.954 194.473 228.868 194.353 230.786C194.341 230.978 194.246 230.728 194.228 230.92C194.119 232.096 193.885 233.956 194.303 234.664C194.269 235.461 194.23 236.429 194.128 237.141C194.063 237.6 193.965 237.151 193.999 237.717C194.007 237.844 194.104 237.681 194.108 237.872C194.125 238.677 194.076 239.556 194.107 240.353C194.113 240.515 194.197 240.473 194.211 240.519C194.324 240.907 194.11 241.545 194.092 241.685C193.962 242.748 193.988 243.527 193.964 244.52C193.958 244.75 194.074 244.48 194.072 244.702C194.063 245.852 194.027 247.043 193.955 248.168C193.939 248.418 193.851 248.186 193.839 248.305C193.785 248.832 193.956 248.952 193.908 249.458C193.898 249.564 193.821 249.503 193.812 249.522C193.67 249.824 193.856 250.092 193.858 250.171C193.895 251.163 193.683 251.792 193.691 252.75C193.692 252.865 193.795 252.608 193.792 252.93C193.774 255.076 193.698 257.343 193.577 259.465C193.558 259.795 193.492 259.558 193.482 259.578C193.338 259.914 193.518 260.137 193.522 260.245C193.554 261.095 193.384 261.885 193.589 262.466C193.439 266.061 193.48 269.642 193.219 273.205C193.216 273.25 193.132 273.167 193.126 273.258C193.056 274.346 193.193 274.139 193.339 274.863C193.376 275.046 193.17 275.594 193.154 275.643C193.098 275.82 192.976 275.633 192.965 275.692C192.876 276.184 193.293 276.112 193.278 276.777C193.277 276.798 193.203 276.709 193.194 276.765C193.167 276.938 193.193 277.11 193.164 277.28C193.095 277.667 192.892 277.802 192.997 278.398C193.01 278.473 193.246 278.363 193.222 278.957C193.212 279.194 193.194 280.242 193.173 280.536C193.152 280.829 193.082 280.626 193.078 280.647C192.963 281.436 192.929 281.135 192.776 281.528C192.624 281.922 192.97 281.819 193.005 281.981C193.04 282.144 192.948 282.722 192.917 282.864C192.886 283.006 192.843 282.827 192.825 282.953C192.705 283.791 192.987 283.325 193.035 283.603C193.149 284.258 192.887 284.761 192.85 285.358C192.84 285.519 192.9 285.388 192.903 285.532C192.911 286.103 192.827 286.444 192.884 287.093C192.894 287.2 193.032 287.727 192.916 288.064C192.899 288.112 192.84 287.974 192.821 288.216C192.793 288.579 192.767 289.232 192.779 289.623C192.789 289.911 192.896 289.583 192.857 289.945C192.84 290.105 192.787 289.806 192.76 290.108C192.732 290.409 192.72 291.178 192.716 291.471C192.712 291.763 192.791 291.605 192.795 291.629C192.822 291.772 192.847 292.334 192.845 292.384C192.802 294.884 192.63 297.188 192.621 299.623C192.62 299.814 192.7 299.689 192.7 299.718C192.719 300.373 192.526 299.853 192.449 300.308C192.605 300.246 192.572 300.515 192.579 300.976C192.583 301.198 192.645 301.078 192.651 301.099C192.735 301.43 192.613 301.657 192.588 301.715C192.495 301.932 192.594 302.171 192.533 302.318C192.472 302.465 192.392 302.122 192.384 302.564C192.437 302.689 192.587 302.364 192.603 302.7C192.664 303.967 192.503 306.328 192.472 307.346C192.439 308.361 192.442 308.689 192.411 309.281C192.355 310.349 192.465 309.96 192.498 310.624C192.531 311.291 192.287 310.963 192.232 311.057C192.176 311.15 192.229 311.254 192.198 311.37C192.166 311.486 192.134 311.233 192.118 311.507C192.102 311.781 192.182 312.532 192.236 312.63C192.35 312.838 192.481 312.503 192.422 313.227C192.419 313.269 192.356 313.132 192.347 313.292C192.271 314.56 192.241 315.877 192.172 317.144C192.163 317.318 192.095 317.161 192.089 317.262C192.023 318.317 192.15 317.942 192.269 318.524C192.097 318.39 191.984 318.708 191.967 319.51C191.958 319.991 192.035 319.91 192.082 320.223C192.096 320.317 192.038 320.656 192.072 320.719C192.184 320.925 192.32 320.606 192.251 321.432C192.248 321.468 192.187 321.351 192.181 321.476C192.139 322.286 192.257 322.385 192.253 323.261C192.25 323.947 192.152 325.166 192.124 325.947C191.936 325.927 191.965 326.666 192.088 326.968C192.072 327.475 192.068 328.022 192.04 328.512C192.031 328.681 191.98 328.569 191.973 328.59C191.876 328.914 191.996 329.137 191.998 329.247C192.021 330.434 191.908 331.398 191.975 332.532C191.978 332.572 192.102 332.64 192.004 332.941C191.997 332.96 191.948 332.585 191.933 333.118C191.917 333.65 191.83 334.653 191.873 335.393C191.883 335.573 191.973 336.027 191.888 336.389C191.876 336.437 191.842 336.383 191.821 336.453C191.755 336.677 191.876 336.803 191.765 337.066C191.655 337.33 191.567 337.88 191.625 338.627C191.626 338.651 191.719 338.83 191.713 339.064C191.703 339.438 191.673 339.969 191.666 340.36C191.662 340.548 191.724 340.429 191.725 340.461C191.732 341.72 191.662 342.615 191.613 343.963C191.604 344.21 191.668 344.921 191.596 345.399C191.518 345.923 191.247 345.377 191.292 346.586C191.311 347.074 191.651 347.697 191.452 348.569C191.463 350.267 191.342 351.835 191.372 353.538C191.373 353.615 191.462 353.859 191.457 354.039C191.45 354.306 191.403 354.451 191.396 354.642C191.368 355.441 191.39 356.173 191.369 356.944C191.361 357.236 191.319 357.133 191.31 357.482C191.3 357.831 191.354 358.065 191.316 358.537C191.288 358.893 191.163 359.248 191.141 359.721C191.256 359.742 191.248 360.067 191.267 360.646C191.27 360.757 191.313 360.639 191.316 360.691C191.333 360.906 191.296 361.103 191.314 361.307C191.318 361.356 191.357 361.36 191.363 361.4C191.413 361.745 191.314 362.309 191.297 362.406C191.232 362.778 191.279 362.953 191.251 363.238C191.222 363.523 191.203 363.096 191.183 363.429C191.141 364.12 191.13 365.008 191.115 365.709C191.109 365.989 191.163 365.799 191.163 365.839C191.165 366.419 191.1 367.003 191.193 367.326C190.929 367.723 191.211 367.676 191.143 368.502C191.137 368.568 191.016 368.648 191.003 368.398C190.99 368.147 191.035 367.768 191.014 367.42C191.009 367.338 190.904 366.865 190.898 366.8C190.853 366.296 191.037 366.228 191.047 366.201C191.161 365.901 191.049 365.323 191.043 365.172C191.016 364.477 191.053 363.889 191.035 363.308C191.024 362.928 190.902 362.889 190.911 362.591C190.94 361.601 191.12 361.258 190.986 360.322C190.957 360.121 190.816 360.318 190.936 359.603C190.944 359.558 191.052 359.027 190.995 358.719C190.988 358.68 190.947 358.68 190.945 358.629C190.929 358.287 190.965 358.06 190.956 357.688C190.946 357.316 190.931 356.868 190.952 356.444C190.964 356.188 191.046 355.861 191.067 355.739C191.128 355.394 191.045 355.022 191.115 354.809C191.185 354.594 191.278 355.018 191.332 354.453C191.224 354.43 191.114 354.379 191.006 354.343C191.03 353.102 191.087 351.88 191.103 350.634C191.105 350.48 191.043 350.637 191.043 350.471C191.045 349.772 191.099 349.163 191.094 348.438C191.09 347.877 191.035 347.261 191.028 346.674C191.165 346.318 191.135 345.447 191.158 344.815C191.166 344.594 191.201 344.609 191.215 344.452C191.268 343.859 191.146 344.135 191.13 343.972C191.062 343.271 191.33 343.217 191.339 342.393C191.339 342.349 191.205 341.813 191.197 341.739C191.146 341.271 191.249 341.663 191.264 341.371C191.293 340.838 191.334 340.467 191.302 339.841C191.293 339.658 191.209 339.218 191.286 338.865C191.296 338.819 191.344 338.845 191.347 338.808C191.407 338.13 191.254 338.109 191.208 337.719C191.162 337.33 191.279 336.732 191.312 336.611C191.397 336.293 191.341 336.856 191.349 336.874C191.438 337.079 191.43 336.641 191.444 336.307C191.596 336.262 191.596 335.794 191.457 335.961C191.442 335.98 191.452 336.24 191.444 336.307C191.3 336.011 191.289 335.497 191.439 334.932C191.51 334.668 191.582 334.92 191.569 334.113C191.563 333.747 191.454 333.886 191.43 333.563C191.377 332.823 191.493 331.866 191.491 331.105C191.49 330.828 191.426 331.096 191.423 330.907C191.415 330.406 191.468 329.965 191.453 329.462C191.452 329.416 191.388 329.526 191.389 329.37C191.402 328.184 191.459 327.152 191.482 325.914C191.492 325.315 191.475 324.245 191.492 323.625C191.522 322.551 191.64 321.232 191.633 320.314C191.628 319.715 191.559 319.845 191.518 319.588C191.439 319.091 191.611 318.218 191.637 318.101C191.638 318.097 191.645 318.612 191.684 318.338C191.759 318.18 191.638 318.107 191.637 318.101C191.654 318.024 191.687 316.995 191.678 316.791C191.673 316.679 191.608 316.74 191.606 316.682C191.572 315.305 191.578 313.927 191.631 312.532C191.633 312.508 191.705 312.546 191.709 312.489C191.755 311.681 191.674 311.162 191.631 310.495C191.588 309.828 191.614 309.3 191.749 308.908C191.741 308.405 191.81 307.685 191.852 307.271C191.894 306.857 191.748 306.796 191.745 306.76C191.671 305.619 191.766 304.963 191.799 303.781C191.815 303.22 191.812 302.105 191.805 301.497C191.799 301.016 191.84 300.727 191.824 300.284C191.822 300.224 191.753 300.283 191.751 300.265C191.678 299.769 191.84 300.01 191.871 299.908C191.985 299.54 192.047 299.313 192.007 298.679C191.998 298.533 191.764 298.103 191.754 297.837C191.741 297.49 191.826 297.622 191.811 297.26C191.81 297.229 191.756 297.234 191.762 297.011C191.789 295.973 191.838 294.842 191.85 293.763C191.852 293.616 191.762 293.803 191.763 293.59C191.769 292.591 191.789 291.496 191.845 290.524C191.859 290.285 191.918 290.436 191.938 290.385C192.053 290.068 191.9 289.612 191.898 289.537C191.848 287.754 192.017 286.393 191.976 284.576C191.973 284.477 191.807 283.712 191.965 283.376C191.975 283.353 192.138 283.02 192.035 282.721C192.029 282.703 191.945 282.91 191.959 282.545C191.973 282.18 191.927 281.591 192.025 281.091C192.055 280.933 192.22 280.56 192.101 280.084C192.093 280.052 191.818 279.315 192.02 279.058C192.053 279.016 192.262 279.064 192.164 278.496C192.145 278.388 192.095 278.583 192.07 278.298C192.032 277.861 192.097 277.283 192.011 276.745C191.996 276.651 191.858 276.25 191.972 275.933C191.99 275.883 192.06 275.98 192.071 275.811C192.121 275.01 192.087 274.169 192.149 273.355C192.171 273.067 192.285 273.217 192.321 272.917C192.358 272.616 192.398 272.011 192.35 271.695C192.301 271.38 192.109 271.72 192.102 271.248C192.068 269.196 192.21 267.168 192.259 265.121C192.266 264.817 192.194 265.068 192.199 264.62C192.22 262.971 192.197 260.121 192.37 258.693C192.508 257.548 192.577 258.993 192.64 258.118C192.671 257.695 192.448 257.233 192.442 257.131C192.384 256.132 192.498 255.441 192.48 254.543C192.477 254.357 192.379 254.537 192.377 254.38C192.369 253.84 192.42 253.275 192.42 252.76C192.42 252.529 192.347 252.57 192.356 252.357C192.376 251.849 192.414 251.4 192.49 250.905C192.497 250.86 192.584 251.167 192.593 250.79C192.608 250.182 192.689 249.427 192.63 248.725C192.612 248.517 192.442 248.505 192.567 248.06C192.593 247.967 192.795 248.091 192.627 247.567C192.599 247.479 192.374 246.599 192.535 246.173C192.577 246.061 192.75 245.775 192.728 245.525C192.724 245.491 192.63 245.625 192.624 245.417C192.606 244.687 192.628 243.922 192.611 243.171C192.606 242.97 192.505 243.267 192.501 242.968C192.489 242.147 192.529 241.122 192.572 240.32C192.588 240.024 192.665 240.23 192.675 240.209C192.823 239.865 192.633 239.657 192.624 239.542C192.567 238.825 192.667 238.283 192.653 237.623C192.649 237.441 192.554 237.569 192.547 237.532C192.471 237.155 192.634 237.438 192.656 237.201C192.719 236.536 192.723 235.794 192.722 235.12C192.721 234.873 192.608 235.149 192.609 234.927C192.61 233.613 192.641 232.248 192.722 230.967C192.737 230.726 192.82 230.879 192.84 230.829C192.982 230.485 192.804 229.973 192.788 229.856C192.715 229.323 192.794 229.118 192.787 228.648C192.752 226.353 192.846 223.522 192.912 221.358C192.997 218.538 193.118 216.35 193.139 213.659C193.14 213.488 193.017 213.658 193.016 213.511C193.017 211.607 193.093 209.735 193.088 207.827C193.087 207.671 192.967 207.894 192.963 207.643C192.953 207.127 192.969 206.475 193.014 205.955C193.036 205.701 193.132 206.044 193.152 205.788C193.199 205.194 193.218 204.556 193.208 203.944C193.204 203.683 193.077 204.074 193.08 203.735C193.104 201.431 193.116 199.167 193.313 196.841C193.326 196.682 193.581 196.547 193.538 196.206C193.468 196.18 193.386 196.179 193.311 196.167C193.323 192.811 193.463 189.493 193.531 186.129C193.534 185.987 193.392 186.229 193.396 185.955C193.423 184.365 193.407 182.821 193.573 181.198C193.589 181.037 193.835 181.125 193.805 180.649C193.8 180.565 193.779 179.848 193.728 179.662C193.72 179.637 193.602 179.765 193.602 179.535C193.605 178.194 193.654 176.789 193.747 175.452C193.762 175.237 193.884 175.469 193.896 175.315C193.981 174.225 193.905 173.037 194.037 171.996C194.126 171.3 194.341 171.562 194.564 171.196C194.595 171.144 194.608 170.712 194.734 170.692C195.052 170.641 195.395 170.857 195.734 170.778C195.79 170.765 195.764 170.416 195.827 170.417C195.827 170.417 195.827 170.417 195.827 170.417C195.845 170.417 195.871 170.448 195.91 170.527C195.921 170.551 195.97 170.972 196.027 171.076C196.066 171.149 196.197 171.022 196.247 171.17C196.296 171.318 196.185 171.477 196.241 171.721C196.298 171.966 196.445 171.862 196.451 172.348ZM192.04 305.406C192.119 305.023 191.859 304.961 191.914 305.378C191.917 305.398 192.037 305.426 192.04 305.406ZM191.235 351.89C191.33 351.39 191.209 351.043 191.136 351.396C191.063 351.749 191.206 352.043 191.235 351.89ZM191.2 357.1C191.277 356.514 191.01 356.416 191.053 357.046C191.056 357.083 191.196 357.134 191.2 357.1ZM194.593 172.917C194.599 172.912 194.611 172.601 194.605 172.594C194.467 172.425 194.444 173.046 194.593 172.917ZM191.167 362.269C191.206 362.087 191.176 361.558 191.128 361.785C191.09 361.968 191.12 362.497 191.167 362.269ZM192.709 285.371C192.714 285.365 192.722 285.142 192.697 285.146C192.619 285.16 192.635 285.47 192.709 285.371ZM191.002 371.053C191.035 369.756 191.253 368.973 191.201 370.386C191.191 370.641 191.148 369.833 191.124 370.158C191.079 370.753 191.196 371.152 191.117 371.759C191.102 371.869 191 371.127 191.002 371.051C191.002 371.052 191.002 371.053 191.002 371.053ZM192.358 305.191C192.361 305.183 192.371 304.875 192.368 304.868C192.288 304.699 192.269 305.32 192.358 305.191ZM193.152 272.378C193.161 272.361 193.184 271.646 193.176 271.623C193.024 271.246 192.979 272.692 193.152 272.378ZM192.119 325.959C192.186 326.297 192.186 326.7 192.088 326.966C192.1 326.632 192.107 326.295 192.119 325.959Z" fill="white"/>
<path d="M197.935 197.475C198.653 198.925 199.833 201.623 200.882 204.111C201.932 206.603 202.854 208.89 203.046 209.502C203.188 209.951 203.519 210.931 203.809 211.702C205.444 216.035 207.001 223.268 207.336 227.931C207.855 235.146 207.23 241.031 205.064 249.095C202.719 257.827 201.564 266.758 201.754 274.639C201.79 276.094 202.102 278.698 202.499 281.246C202.896 283.794 203.377 286.281 203.75 287.503C204.026 288.405 204.332 289.408 204.413 289.786C204.452 289.97 204.575 290.341 204.737 290.796C204.898 291.25 205.096 291.784 205.287 292.293C205.67 293.319 206.133 294.585 206.302 295.103C206.663 296.205 207.386 297.604 210.488 303.301C211.777 305.667 212.397 306.804 213.164 307.851C213.931 308.899 214.846 309.859 216.726 311.87C223.686 319.313 231.102 323.552 239.034 324.634C240.848 324.881 242.097 325.007 243.289 325.001C244.48 324.994 245.616 324.856 247.203 324.576C252.346 323.669 257.093 321.979 261.703 319.352C263.187 318.506 265.322 316.977 267.356 315.363C269.39 313.748 271.32 312.049 272.397 310.865C277.641 305.099 281.238 298.928 282.335 291.405C282.504 290.248 282.702 289.219 282.893 288.454C282.988 288.071 283.082 287.752 283.17 287.516C283.214 287.398 283.258 287.299 283.299 287.223C283.34 287.148 283.382 287.089 283.426 287.056L283.484 287.013C283.528 286.98 283.597 286.957 283.68 286.94C283.765 286.923 283.872 286.909 283.998 286.902C284.25 286.886 284.582 286.889 284.976 286.908C285.764 286.948 286.806 287.057 287.962 287.231C295.482 288.363 302.81 287.218 309.846 283.874C311.292 283.187 313.477 281.832 315.613 280.353C317.748 278.875 319.83 277.276 321.07 276.1C324.921 272.451 327.915 268.4 330.275 263.741C331.003 262.303 331.465 261.256 331.816 260.118C332.168 258.979 332.411 257.747 332.7 255.939C333.965 248.034 332.058 239.707 326.953 230.888C325.575 228.506 324.923 227.352 324.142 226.313C323.362 225.275 322.454 224.352 320.563 222.432C316.011 217.811 314.881 216.715 313.931 216.049C313.485 215.737 312.407 214.928 311.537 214.263C311.105 213.933 310.652 213.587 310.264 213.301C309.875 213.015 309.555 212.789 309.391 212.698C309.053 212.511 308.182 211.928 307.399 211.402C306.338 210.691 304.098 209.509 301.774 208.39C299.45 207.271 297.049 206.217 295.666 205.761C288.179 203.293 279.297 201.808 270.26 201.519C261.914 201.253 256.102 200.145 249.348 197.557C244.982 195.883 238.511 192.295 234.839 189.474C234.185 188.972 233.344 188.372 232.954 188.106C232.425 187.744 230.504 186.199 228.423 184.471C226.345 182.745 224.104 180.832 222.925 179.725L197.423 170.865L197.935 197.475Z" fill="white" stroke="white" stroke-width="0.1"/>
<path d="M199.706 168.211C200.785 168.545 202.168 169.071 203.212 169.494C203.539 169.626 203.345 169.642 203.57 169.736C204.009 169.921 204.44 170.03 204.873 170.219C205.016 170.282 204.793 170.334 204.944 170.397C205.772 170.742 206.582 170.99 207.431 171.312C211.61 172.897 215.745 174.375 220.001 175.905C221.404 176.409 223.083 177.1 224.553 177.56C224.725 177.614 224.656 177.484 224.691 177.487C225.24 177.542 225.005 177.676 225.327 177.816C226.607 178.371 228.065 178.884 229.342 179.285C229.886 179.455 229.41 179.083 229.916 179.374C229.951 179.394 229.78 179.446 229.924 179.508C230.251 179.647 230.892 179.849 231.148 179.946C231.643 180.134 231.726 180.162 232.198 180.326C232.843 180.552 233.595 180.866 234.296 181.083C234.446 181.129 234.285 180.961 234.526 181.026C234.768 181.091 235.39 181.315 235.593 181.411C235.796 181.508 235.679 181.555 235.71 181.586C235.965 181.843 236.76 181.883 236.855 181.91C238.581 182.408 239.994 183.029 241.587 183.578C242.795 183.995 244.101 184.403 245.249 184.805C246.617 185.285 247.76 185.738 249.094 186.188C249.235 186.236 249.108 186.068 249.28 186.126C251.107 186.743 252.913 187.381 254.702 188.082C254.882 188.152 254.614 188.166 254.792 188.242C255.878 188.705 257.577 189.497 258.378 189.315C259.127 189.592 260.037 189.925 260.683 190.239C261.1 190.442 260.643 190.398 261.192 190.538C261.316 190.57 261.19 190.428 261.373 190.482C262.145 190.712 262.967 191.028 263.735 191.242C263.892 191.286 263.877 191.193 263.925 191.194C264.329 191.205 264.871 191.604 264.999 191.663C265.971 192.113 266.721 192.327 267.659 192.653C267.876 192.729 267.655 192.536 267.865 192.605C268.957 192.966 270.08 193.364 271.129 193.777C271.362 193.869 271.115 193.881 271.224 193.93C271.71 194.142 271.877 194.016 272.343 194.217C272.441 194.259 272.359 194.313 272.374 194.328C272.619 194.555 272.931 194.46 273.006 194.482C273.962 194.751 274.497 195.145 275.411 195.43C275.52 195.464 275.308 195.287 275.614 195.389C277.65 196.063 279.786 196.829 281.769 197.593C282.077 197.711 281.831 197.702 281.848 197.717C282.124 197.958 282.391 197.855 282.495 197.883C283.314 198.113 284.014 198.516 284.63 198.498C288.006 199.741 291.429 200.798 294.741 202.136C294.783 202.153 294.679 202.207 294.763 202.24C295.778 202.64 295.623 202.446 296.357 202.528C296.542 202.549 297.001 202.914 297.042 202.943C297.194 203.05 296.978 203.109 297.031 203.138C297.472 203.374 297.531 202.955 298.16 203.172C298.18 203.179 298.072 203.223 298.123 203.248C298.279 203.327 298.452 203.355 298.604 203.435C298.952 203.619 299.018 203.853 299.617 203.936C299.693 203.946 299.66 203.688 300.218 203.892C300.441 203.974 301.434 204.312 301.707 204.422C301.979 204.532 301.765 204.536 301.783 204.546C302.499 204.897 302.203 204.837 302.53 205.103C302.858 205.368 302.866 205.007 303.031 205.024C303.197 205.04 303.719 205.305 303.845 205.378C303.97 205.45 303.787 205.437 303.902 205.493C304.663 205.863 304.306 205.452 304.585 205.491C305.243 205.583 305.642 205.987 306.199 206.204C306.349 206.263 306.243 206.166 306.381 206.207C306.927 206.374 307.226 206.559 307.862 206.702C307.966 206.726 308.51 206.755 308.795 206.969C308.836 207 308.687 207.014 308.912 207.106C309.248 207.243 309.862 207.468 310.238 207.576C310.515 207.655 310.236 207.453 310.568 207.6C310.716 207.666 310.414 207.624 310.694 207.743C310.972 207.861 311.7 208.109 311.978 208.202C312.255 208.295 312.129 208.171 312.153 208.174C312.297 208.193 312.84 208.341 312.886 208.357C315.254 209.164 317.395 210.032 319.711 210.785C319.892 210.844 319.797 210.731 319.825 210.739C320.454 210.922 319.9 210.946 320.31 211.159C320.298 210.991 320.544 211.105 320.986 211.239C321.198 211.303 321.103 211.207 321.124 211.208C321.465 211.23 321.644 211.415 321.692 211.457C321.87 211.611 322.128 211.59 322.249 211.694C322.371 211.797 322.02 211.768 322.438 211.91C322.573 211.899 322.309 211.656 322.634 211.743C323.86 212.073 326.058 212.948 327.017 213.29C327.974 213.631 328.288 213.728 328.841 213.939C329.841 214.319 329.504 214.095 330.147 214.267C330.792 214.44 330.404 214.571 330.477 214.653C330.549 214.735 330.664 214.716 330.765 214.782C330.866 214.847 330.615 214.8 330.871 214.899C331.127 214.998 331.867 215.151 331.977 215.13C332.209 215.085 331.93 214.858 332.602 215.136C332.64 215.152 332.491 215.169 332.64 215.227C333.824 215.687 335.07 216.119 336.254 216.571C336.417 216.634 336.247 216.65 336.341 216.687C337.326 217.072 337.007 216.837 337.597 216.901C337.418 217.024 337.686 217.23 338.444 217.49C338.9 217.647 338.846 217.548 339.158 217.599C339.252 217.614 339.557 217.774 339.627 217.76C339.858 217.717 339.596 217.49 340.361 217.808C340.394 217.822 340.265 217.844 340.382 217.889C341.14 218.176 341.27 218.093 342.103 218.365C342.755 218.578 343.886 219.045 344.621 219.31C344.544 219.483 345.256 219.681 345.581 219.657C346.059 219.827 346.579 219.998 347.037 220.174C347.195 220.235 347.073 220.249 347.091 220.262C347.37 220.454 347.619 220.408 347.724 220.439C348.861 220.781 349.745 221.183 350.845 221.466C350.884 221.476 350.986 221.378 351.243 221.563C351.259 221.576 350.887 221.508 351.389 221.685C351.891 221.863 352.82 222.252 353.538 222.439C353.711 222.484 354.172 222.537 354.49 222.729C354.532 222.754 354.471 222.77 354.53 222.811C354.724 222.944 354.881 222.867 355.098 223.052C355.315 223.238 355.812 223.49 356.541 223.664C356.564 223.67 356.762 223.636 356.984 223.713C357.337 223.837 357.833 224.029 358.203 224.155C358.38 224.215 358.286 224.12 358.317 224.13C359.518 224.507 360.349 224.848 361.617 225.307C361.849 225.391 362.546 225.548 362.979 225.762C363.454 225.996 362.852 226.088 364.016 226.414C364.486 226.546 365.184 226.413 365.953 226.869C367.573 227.378 369.029 227.973 370.66 228.465C370.733 228.488 370.992 228.477 371.162 228.537C371.414 228.626 371.539 228.715 371.718 228.779C372.47 229.051 373.174 229.254 373.901 229.51C374.177 229.607 374.066 229.615 374.396 229.731C374.725 229.846 374.964 229.867 375.402 230.047C375.732 230.183 376.032 230.41 376.476 230.576C376.53 230.473 376.838 230.58 377.395 230.739C377.502 230.77 377.402 230.693 377.453 230.706C377.662 230.756 377.839 230.852 378.038 230.897C378.087 230.908 378.102 230.871 378.142 230.878C378.486 230.936 378.993 231.203 379.08 231.249C379.414 231.424 379.595 231.433 379.858 231.548C380.121 231.661 379.708 231.55 380.019 231.671C380.663 231.921 381.505 232.203 382.169 232.433C382.434 232.524 382.269 232.414 382.308 232.426C382.859 232.602 383.396 232.842 383.732 232.853C384.029 233.225 384.07 232.943 384.837 233.26C384.897 233.285 384.937 233.425 384.694 233.361C384.452 233.297 384.105 233.138 383.767 233.052C383.687 233.031 383.204 232.986 383.141 232.972C382.647 232.861 382.639 232.666 382.617 232.647C382.366 232.447 381.781 232.377 381.635 232.337C380.966 232.15 380.416 231.934 379.858 231.774C379.493 231.669 379.418 231.773 379.137 231.673C378.204 231.343 377.933 231.066 377 230.908C376.801 230.874 376.944 231.068 376.3 230.735C376.26 230.714 375.788 230.448 375.477 230.409C375.437 230.404 375.425 230.442 375.376 230.429C375.046 230.34 374.841 230.236 374.483 230.131C374.126 230.026 373.695 229.904 373.298 229.754C373.058 229.664 372.772 229.486 372.662 229.428C372.352 229.265 371.972 229.23 371.791 229.099C371.608 228.966 372.04 229.007 371.518 228.783C371.463 228.878 371.381 228.968 371.314 229.06C370.139 228.657 368.994 228.23 367.813 227.833C367.666 227.784 367.796 227.891 367.639 227.84C366.974 227.624 366.41 227.387 365.719 227.17C365.183 227.002 364.58 226.866 364.019 226.693C363.722 226.454 362.884 226.216 362.289 226.001C362.081 225.926 362.106 225.897 361.961 225.835C361.412 225.603 361.638 225.804 361.478 225.769C360.79 225.62 360.82 225.348 360.038 225.088C359.997 225.074 359.445 225.038 359.372 225.023C358.911 224.928 359.316 224.95 359.042 224.846C358.543 224.656 358.204 224.503 357.597 224.342C357.42 224.295 356.976 224.24 356.663 224.059C356.622 224.036 356.662 223.998 356.628 223.983C356 223.719 355.934 223.858 355.549 223.783C355.164 223.707 354.631 223.414 354.525 223.345C354.249 223.167 354.768 223.392 354.787 223.39C355.009 223.368 354.59 223.242 354.276 223.126C354.28 222.967 353.835 222.824 353.951 223.007C353.964 223.028 354.215 223.098 354.276 223.126C353.95 223.173 353.457 223.026 352.966 222.71C352.736 222.562 352.998 222.571 352.226 222.337C351.875 222.23 351.974 222.376 351.659 222.3C350.939 222.125 350.063 221.721 349.338 221.491C349.074 221.407 349.31 221.55 349.129 221.495C348.65 221.348 348.246 221.164 347.762 221.024C347.718 221.011 347.803 221.106 347.655 221.056C346.529 220.682 345.565 220.311 344.393 219.911C343.826 219.718 342.802 219.408 342.217 219.201C341.204 218.845 339.984 218.329 339.107 218.055C338.536 217.876 338.638 217.981 338.381 217.942C337.884 217.866 337.105 217.435 337.002 217.373C336.999 217.372 337.491 217.523 337.242 217.402C337.114 217.282 337.007 217.375 337.002 217.373C336.933 217.334 335.964 216.988 335.767 216.934C335.659 216.905 335.697 216.985 335.642 216.969C334.32 216.581 333.01 216.154 331.698 215.676C331.675 215.667 331.734 215.61 331.68 215.589C330.926 215.298 330.407 215.217 329.759 215.054C329.11 214.89 328.616 214.704 328.284 214.456C327.803 214.309 327.138 214.024 326.757 213.857C326.375 213.69 326.273 213.811 326.237 213.802C325.128 213.524 324.532 213.233 323.418 212.84C322.888 212.653 321.826 212.315 321.245 212.135C320.785 211.994 320.523 211.867 320.096 211.746C320.038 211.73 320.073 211.813 320.055 211.81C319.561 211.728 319.84 211.647 319.753 211.586C319.437 211.365 319.24 211.237 318.624 211.081C318.482 211.045 318.001 211.136 317.744 211.064C317.411 210.97 317.563 210.93 317.213 210.834C317.183 210.825 317.171 210.878 316.96 210.804C315.981 210.462 314.919 210.068 313.896 209.727C313.756 209.68 313.907 209.823 313.704 209.757C312.755 209.446 311.719 209.092 310.81 208.741C310.587 208.654 310.749 208.644 310.706 208.61C310.439 208.403 309.958 208.41 309.886 208.389C308.173 207.891 306.93 207.314 305.187 206.797C305.092 206.769 304.313 206.694 304.041 206.441C304.023 206.424 303.755 206.167 303.439 206.173C303.42 206.174 303.592 206.317 303.248 206.192C302.905 206.067 302.331 205.93 301.884 205.685C301.743 205.607 301.438 205.337 300.948 205.304C300.916 205.302 300.13 205.338 299.947 205.067C299.917 205.023 300.027 204.839 299.456 204.759C299.347 204.744 299.518 204.851 299.239 204.787C298.811 204.69 298.281 204.451 297.742 204.368C297.648 204.354 297.224 204.363 296.957 204.157C296.915 204.125 297.028 204.088 296.871 204.026C296.124 203.733 295.313 203.509 294.557 203.2C294.289 203.091 294.467 203.028 294.192 202.902C293.918 202.776 293.354 202.552 293.038 202.502C292.723 202.451 292.988 202.738 292.536 202.601C290.573 202.006 288.685 201.25 286.751 200.577C286.464 200.477 286.68 200.623 286.256 200.481C284.692 199.957 281.972 199.107 280.665 198.506C279.618 198.023 281.014 198.401 280.2 198.072C279.807 197.914 279.299 197.985 279.2 197.959C278.231 197.709 277.608 197.389 276.748 197.131C276.57 197.078 276.711 197.226 276.56 197.179C276.045 197.022 275.522 196.8 275.032 196.643C274.812 196.572 274.828 196.655 274.629 196.581C274.151 196.406 273.735 196.233 273.287 196.009C273.247 195.988 273.565 196 273.21 195.876C272.634 195.675 271.941 195.367 271.254 195.209C271.05 195.162 270.988 195.32 270.602 195.066C270.521 195.013 270.701 194.858 270.151 194.858C270.058 194.857 269.152 194.803 268.796 194.519C268.702 194.444 268.483 194.192 268.237 194.137C268.204 194.13 268.303 194.261 268.103 194.203C267.402 193.997 266.68 193.742 265.96 193.529C265.768 193.472 266.019 193.659 265.734 193.571C264.948 193.331 263.985 192.98 263.234 192.694C262.958 192.588 263.178 192.577 263.16 192.562C262.878 192.315 262.622 192.432 262.509 192.406C261.81 192.241 261.324 191.98 260.692 191.792C260.517 191.739 260.609 191.869 260.572 191.865C260.19 191.821 260.51 191.753 260.29 191.659C259.677 191.396 258.971 191.165 258.33 190.961C258.094 190.886 258.322 191.078 258.111 191.009C256.86 190.606 255.57 190.159 254.375 189.69C254.15 189.602 254.322 189.57 254.281 189.535C253.996 189.295 253.455 189.308 253.338 189.287C252.808 189.194 252.637 189.056 252.188 188.919C249.992 188.25 247.326 187.295 245.285 186.57C242.626 185.626 240.58 184.842 238.025 183.999C237.862 183.946 237.987 184.115 237.846 184.071C236.034 183.488 234.275 182.842 232.457 182.264C232.308 182.217 232.483 182.4 232.243 182.327C231.749 182.179 231.133 181.964 230.651 181.762C230.416 181.663 230.772 181.677 230.535 181.58C229.983 181.353 229.381 181.14 228.796 180.962C228.547 180.886 228.879 181.127 228.558 181.019C226.371 180.292 224.22 179.589 222.066 178.69C221.918 178.628 221.868 178.344 221.53 178.281C221.483 178.339 221.458 178.418 221.423 178.485C218.232 177.448 215.115 176.299 211.934 175.205C211.799 175.159 211.987 175.369 211.727 175.281C210.222 174.769 208.747 174.312 207.252 173.658C207.104 173.593 207.263 173.385 206.8 173.268C206.719 173.248 206.03 173.049 205.837 173.04C205.811 173.04 205.897 173.192 205.677 173.121C204.401 172.708 203.079 172.232 201.835 171.734C201.634 171.654 201.893 171.609 201.75 171.55C200.738 171.136 199.583 170.845 198.633 170.401C197.997 170.103 198.313 169.979 198.032 169.655C197.992 169.609 197.585 169.465 197.605 169.338C197.653 169.02 197.964 168.76 197.992 168.413C197.997 168.355 197.656 168.273 197.677 168.214C197.677 168.214 197.677 168.214 197.677 168.214C197.683 168.197 197.72 168.181 197.807 168.169C197.833 168.165 198.249 168.248 198.366 168.225C198.447 168.21 198.366 168.046 198.522 168.045C198.678 168.043 198.795 168.197 199.045 168.219C199.296 168.239 199.242 168.067 199.706 168.211ZM325.039 213.107C324.698 212.915 324.56 213.144 324.973 213.219C324.994 213.222 325.056 213.117 325.039 213.107ZM369.049 228.092C368.601 227.848 368.235 227.857 368.548 228.035C368.862 228.212 369.185 228.166 369.049 228.092ZM373.998 229.718C373.464 229.465 373.289 229.69 373.902 229.841C373.938 229.85 374.029 229.733 373.998 229.718ZM199.68 170.153C199.677 170.146 199.385 170.04 199.376 170.043C199.173 170.123 199.757 170.335 199.68 170.153ZM378.91 231.33C378.748 231.238 378.235 231.105 378.437 231.22C378.599 231.312 379.112 231.445 378.91 231.33ZM306.168 206.342C306.164 206.336 305.955 206.26 305.951 206.285C305.94 206.364 306.24 206.443 306.168 206.342ZM387.222 234.175C385.997 233.746 385.318 233.3 386.647 233.781C386.888 233.868 386.105 233.662 386.407 233.785C386.96 234.009 387.375 234.02 387.929 234.281C388.029 234.328 387.292 234.199 387.22 234.174C387.221 234.174 387.221 234.174 387.222 234.175ZM324.931 212.739C324.925 212.733 324.634 212.63 324.626 212.631C324.441 212.655 325.027 212.863 324.931 212.739ZM293.934 201.947C293.92 201.933 293.246 201.692 293.222 201.692C292.817 201.722 294.18 202.208 293.934 201.947ZM344.631 219.319C344.973 219.358 345.356 219.481 345.58 219.656C345.265 219.543 344.947 219.432 344.631 219.319Z" fill="white"/>
<path d="M224.083 174.482C225.683 174.242 228.612 173.944 231.302 173.706C233.996 173.468 236.455 173.291 237.096 173.295C237.568 173.297 238.602 173.282 239.425 173.241C244.05 173.01 251.412 173.74 255.955 174.847C262.983 176.56 268.394 178.955 275.41 183.484C283.006 188.387 291.155 192.218 298.717 194.448C300.113 194.859 302.688 195.358 305.235 195.76C307.783 196.161 310.298 196.464 311.575 196.482C312.518 196.496 313.567 196.511 313.951 196.549C314.138 196.568 314.529 196.565 315.012 196.55C315.493 196.536 316.063 196.51 316.606 196.484C317.7 196.433 319.047 196.38 319.591 196.377C320.751 196.37 322.304 196.11 328.676 194.899C331.323 194.396 332.595 194.153 333.827 193.743C335.06 193.333 336.254 192.756 338.743 191.581C347.958 187.231 354.262 181.467 357.719 174.246C358.509 172.595 359.011 171.444 359.369 170.308C359.727 169.171 359.943 168.047 360.162 166.451C360.871 161.277 360.714 156.241 359.623 151.048C359.272 149.376 358.469 146.876 357.554 144.446C356.639 142.015 355.612 139.658 354.814 138.271C350.928 131.515 346.153 126.203 339.326 122.857C338.276 122.342 337.357 121.839 336.687 121.423C336.351 121.215 336.077 121.029 335.879 120.873C335.78 120.795 335.699 120.723 335.639 120.66C335.581 120.598 335.537 120.54 335.519 120.488L335.496 120.42C335.478 120.368 335.478 120.295 335.487 120.21C335.496 120.124 335.516 120.018 335.547 119.896C335.609 119.652 335.713 119.336 335.852 118.967C336.131 118.229 336.554 117.27 337.073 116.223C340.451 109.409 341.602 102.083 340.57 94.3605C340.358 92.7743 339.737 90.2793 338.982 87.7938C338.228 85.3085 337.342 82.837 336.603 81.297C334.306 76.514 331.364 72.425 327.65 68.7528C326.505 67.6201 325.649 66.8603 324.673 66.1772C323.696 65.4939 322.597 64.8859 320.965 64.0578C313.825 60.4352 305.314 59.704 295.356 61.8668C292.666 62.4509 291.368 62.7187 290.141 63.1441C288.914 63.5693 287.757 64.1518 285.351 65.3651C279.559 68.2855 278.17 69.0258 277.246 69.7269C276.812 70.0558 275.712 70.8345 274.813 71.4599C274.367 71.77 273.899 72.0958 273.508 72.3774C273.116 72.6599 272.803 72.8955 272.666 73.0242C272.384 73.289 271.563 73.9398 270.824 74.5247C269.822 75.3171 268.011 77.0885 266.235 78.9585C264.459 80.8285 262.721 82.7927 261.865 83.9692C257.225 90.3427 253.094 98.3451 250.055 106.86C247.249 114.725 244.416 119.92 239.886 125.559C236.957 129.204 231.562 134.267 227.753 136.9C227.075 137.369 226.246 137.986 225.874 138.276C225.368 138.669 223.309 140.026 221.027 141.478C218.748 142.929 216.241 144.478 214.826 145.261L198.591 166.831L224.083 174.482Z" fill="white" stroke="white" stroke-width="0.1"/>
<path d="M196.763 163.845C197.411 162.921 198.335 161.764 199.057 160.9C199.283 160.629 199.238 160.818 199.397 160.633C199.707 160.272 199.943 159.895 200.255 159.541C200.359 159.423 200.341 159.652 200.447 159.527C201.028 158.844 201.512 158.149 202.078 157.44C204.865 153.945 207.538 150.461 210.295 146.877C211.205 145.695 212.377 144.308 213.264 143.049C213.368 142.902 213.223 142.927 213.236 142.895C213.457 142.39 213.513 142.654 213.744 142.39C214.664 141.342 215.598 140.11 216.371 139.017C216.699 138.551 216.199 138.89 216.631 138.498C216.661 138.471 216.659 138.649 216.761 138.531C216.994 138.263 217.382 137.714 217.553 137.5C217.883 137.086 217.935 137.016 218.236 136.616C218.648 136.071 219.177 135.451 219.598 134.85C219.688 134.721 219.479 134.824 219.614 134.613C219.75 134.403 220.154 133.879 220.307 133.716C220.461 133.552 220.47 133.678 220.509 133.658C220.832 133.494 221.113 132.749 221.168 132.667C222.17 131.176 223.194 130.02 224.204 128.672C224.97 127.649 225.758 126.531 226.492 125.561C227.367 124.406 228.148 123.455 228.985 122.323C229.073 122.204 228.875 122.273 228.982 122.127C230.129 120.576 231.289 119.052 232.503 117.563C232.624 117.413 232.557 117.672 232.683 117.527C233.456 116.634 234.729 115.259 234.802 114.44C235.294 113.812 235.889 113.047 236.386 112.528C236.707 112.193 236.525 112.615 236.827 112.135C236.895 112.027 236.721 112.103 236.829 111.946C237.284 111.281 237.836 110.595 238.275 109.929C238.364 109.794 238.271 109.779 238.286 109.734C238.421 109.353 238.967 108.959 239.062 108.855C239.788 108.067 240.22 107.418 240.818 106.625C240.957 106.441 240.705 106.594 240.836 106.414C241.513 105.485 242.236 104.537 242.95 103.665C243.109 103.471 243.044 103.711 243.124 103.621C243.474 103.224 243.406 103.026 243.739 102.644C243.809 102.563 243.836 102.658 243.855 102.648C244.146 102.485 244.151 102.158 244.195 102.093C244.743 101.266 245.282 100.877 245.833 100.094C245.899 100 245.666 100.148 245.855 99.8882C247.12 98.1553 248.503 96.3561 249.837 94.7019C250.044 94.4447 249.96 94.6761 249.979 94.6648C250.293 94.476 250.276 94.1902 250.335 94.0999C250.804 93.3904 251.402 92.8468 251.574 92.255C253.79 89.4208 255.843 86.4854 258.13 83.7413C258.159 83.7062 258.179 83.8225 258.236 83.7524C258.927 82.9085 258.695 82.9966 258.998 82.323C259.074 82.1535 259.561 81.8278 259.602 81.7971C259.751 81.6858 259.741 81.9091 259.785 81.8674C260.144 81.5197 259.763 81.3354 260.162 80.8027C260.175 80.7865 260.183 80.9021 260.223 80.8619C260.346 80.7372 260.425 80.5813 260.548 80.461C260.829 80.1861 261.072 80.1948 261.335 79.6496C261.368 79.5804 261.112 79.5327 261.477 79.0637C261.623 78.8768 262.249 78.0351 262.437 77.8088C262.625 77.5828 262.563 77.7886 262.579 77.7737C263.131 77.1992 262.984 77.4636 263.337 77.2329C263.69 77.0016 263.349 76.8838 263.415 76.7315C263.481 76.5791 263.893 76.1628 264.001 76.0653C264.108 75.968 264.039 76.1382 264.128 76.0462C264.713 75.4349 264.213 75.6495 264.335 75.3955C264.623 74.7967 265.13 74.5408 265.507 74.0769C265.609 73.9514 265.484 74.0229 265.566 73.9044C265.891 73.4359 266.159 73.2079 266.49 72.6459C266.544 72.554 266.739 72.0451 267.03 71.8389C267.072 71.8098 267.039 71.9561 267.196 71.7698C267.43 71.4916 267.832 70.9759 268.049 70.6512C268.209 70.4115 267.931 70.6155 268.173 70.344C268.281 70.2234 268.149 70.4977 268.347 70.2681C268.545 70.0397 269.003 69.4215 269.177 69.1857C269.35 68.9502 269.194 69.0331 269.204 69.0111C269.266 68.8791 269.573 68.4081 269.603 68.3684C271.095 66.361 272.576 64.5885 274.002 62.6137C274.114 62.4589 273.976 62.5149 273.993 62.4908C274.359 61.9479 274.213 62.4827 274.541 62.1573C274.377 62.1173 274.561 61.9181 274.824 61.5389C274.95 61.356 274.83 61.4171 274.837 61.3972C274.961 61.0793 275.193 60.9658 275.247 60.9328C275.448 60.8108 275.507 60.5585 275.643 60.4748C275.779 60.3907 275.644 60.7159 275.907 60.3611C275.937 60.229 275.626 60.406 275.808 60.1234C276.497 59.0574 278.003 57.2321 278.621 56.4234C279.239 55.6167 279.427 55.348 279.797 54.8854C280.465 54.0496 280.149 54.3022 280.509 53.7428C280.871 53.1819 280.877 53.5906 280.978 53.5461C281.077 53.503 281.094 53.3877 281.188 53.3117C281.281 53.2359 281.159 53.46 281.332 53.2469C281.505 53.0337 281.877 52.3759 281.89 52.2648C281.919 52.0296 281.617 52.226 282.087 51.6712C282.114 51.6394 282.085 51.7867 282.186 51.6627C282.986 50.6764 283.777 49.6223 284.571 48.6329C284.68 48.497 284.643 48.6641 284.707 48.5854C285.375 47.7658 285.054 47.9972 285.296 47.4549C285.358 47.6637 285.635 47.4712 286.115 46.829C286.404 46.4431 286.293 46.4642 286.437 46.1826C286.48 46.098 286.726 45.8558 286.734 45.7851C286.764 45.5525 286.467 45.7321 287.004 45.1013C287.028 45.0737 287.009 45.204 287.087 45.106C287.592 44.4722 287.554 44.3227 288.067 43.6133C288.47 43.0573 289.259 42.1236 289.737 41.5048C289.878 41.6306 290.285 41.0132 290.361 40.6963C290.669 40.2934 290.991 39.8505 291.299 39.4686C291.405 39.3371 291.381 39.4579 291.399 39.4443C291.667 39.2374 291.699 38.9865 291.761 38.896C292.434 37.9179 293.087 37.1991 293.693 36.2385C293.715 36.2044 293.653 36.0773 293.908 35.8897C293.925 35.8778 293.746 36.2114 294.069 35.7875C294.392 35.3636 295.046 34.599 295.443 33.9724C295.539 33.8207 295.73 33.3987 296.01 33.1544C296.048 33.1219 296.044 33.1854 296.102 33.1411C296.287 32.9974 296.262 32.8247 296.505 32.6748C296.748 32.5249 297.14 32.1286 297.528 31.4879C297.541 31.4676 297.569 31.2682 297.711 31.0813C297.937 30.7828 298.271 30.3689 298.504 30.0552C298.616 29.9051 298.497 29.9655 298.515 29.9388C299.242 28.9109 299.821 28.2249 300.645 27.1579C300.796 26.9624 301.159 26.3463 301.495 26.0001C301.863 25.6196 301.766 26.2209 302.433 25.2119C302.702 24.8047 302.789 24.0999 303.459 23.5073C304.438 22.1201 305.45 20.9161 306.418 19.5143C306.462 19.4513 306.531 19.201 306.64 19.0576C306.801 18.8448 306.924 18.7536 307.041 18.6024C307.53 17.9697 307.938 17.3613 308.404 16.7472C308.58 16.5141 308.555 16.6226 308.766 16.3444C308.976 16.0662 309.069 15.8451 309.374 15.4832C309.605 15.2099 309.913 14.9943 310.207 14.6224C310.125 14.5387 310.321 14.2793 310.643 13.7976C310.705 13.705 310.601 13.7766 310.629 13.7316C310.741 13.5478 310.886 13.4089 310.989 13.2327C311.015 13.1899 310.985 13.1647 311.004 13.1284C311.164 12.8189 311.573 12.4178 311.643 12.3489C311.913 12.0847 311.977 11.9151 312.166 11.6995C312.355 11.4843 312.122 11.8431 312.332 11.5841C312.768 11.047 313.294 10.3315 313.715 9.76995C313.883 9.54573 313.729 9.66881 313.752 9.63602C314.088 9.16444 314.481 8.72673 314.594 8.41023C315.039 8.2415 314.783 8.11558 315.319 7.48308C315.362 7.43333 315.507 7.43843 315.372 7.64972C315.236 7.86101 314.979 8.14285 314.794 8.43789C314.75 8.50765 314.559 8.95359 314.527 9.00938C314.27 9.44585 314.081 9.39401 314.057 9.40936C313.789 9.58677 313.544 10.1222 313.461 10.2491C313.078 10.8289 312.705 11.2861 312.381 11.7684C312.169 12.0838 312.246 12.187 312.065 12.4239C311.465 13.2118 311.119 13.3851 310.683 14.2244C310.589 14.4043 310.818 14.3266 310.304 14.8379C310.272 14.8701 309.874 15.238 309.741 15.5225C309.725 15.5583 309.758 15.5814 309.73 15.6244C309.544 15.9117 309.383 16.0752 309.173 16.3831C308.964 16.691 308.716 17.0642 308.452 17.3969C308.293 17.5975 308.035 17.8153 307.947 17.9023C307.697 18.1474 307.547 18.4984 307.367 18.631C307.184 18.7646 307.356 18.3656 306.983 18.7941C307.057 18.8756 307.117 18.9807 307.184 19.0729C306.441 20.068 305.684 21.0278 304.945 22.0311C304.853 22.1555 304.995 22.0645 304.899 22.1988C304.49 22.7657 304.092 23.2301 303.673 23.8222C303.35 24.2807 303.035 24.8134 302.699 25.2944C302.381 25.504 301.898 26.2293 301.511 26.7298C301.376 26.9052 301.357 26.8721 301.253 26.9917C300.865 27.443 301.125 27.2898 301.043 27.4317C300.69 28.0405 300.44 27.9286 299.953 28.5936C299.928 28.6287 299.724 29.1431 299.688 29.2075C299.457 29.6176 299.602 29.2395 299.419 29.4678C299.085 29.8846 298.836 30.1613 298.497 30.6894C298.398 30.8435 298.21 31.2497 297.942 31.4921C297.907 31.524 297.884 31.4743 297.859 31.5027C297.415 32.0196 297.527 32.1255 297.338 32.4685C297.148 32.8116 296.706 33.2298 296.608 33.3093C296.354 33.518 296.727 33.0925 296.731 33.074C296.778 32.8554 296.53 33.216 296.324 33.4795C296.173 33.4274 295.901 33.8077 296.111 33.753C296.134 33.7465 296.278 33.5292 296.324 33.4795C296.268 33.8041 295.978 34.2286 295.527 34.5999C295.316 34.7736 295.404 34.5261 294.945 35.1901C294.736 35.4914 294.906 35.4415 294.736 35.7182C294.349 36.3506 293.697 37.0609 293.256 37.6811C293.096 37.9062 293.304 37.7257 293.196 37.8808C292.91 38.2927 292.611 38.6207 292.329 39.0383C292.304 39.0763 292.42 39.0242 292.328 39.1504C291.627 40.1074 290.979 40.9125 290.24 41.9062C289.883 42.3863 289.274 43.2666 288.899 43.7602C288.249 44.6159 287.385 45.6198 286.856 46.3704C286.511 46.8599 286.642 46.7941 286.526 47.0272C286.301 47.4773 285.653 48.0867 285.563 48.1666C285.56 48.169 285.855 47.746 285.663 47.9461C285.511 48.0316 285.566 48.1617 285.563 48.1666C285.504 48.2193 284.878 49.0362 284.767 49.2079C284.706 49.3013 284.795 49.2897 284.762 49.3376C283.988 50.4768 283.181 51.5942 282.325 52.6968C282.309 52.7157 282.273 52.6422 282.237 52.6872C281.729 53.3164 281.492 53.7855 281.139 54.353C280.785 54.9203 280.457 55.3343 280.119 55.5742C279.832 55.9875 279.357 56.5326 279.082 56.845C278.806 57.1573 278.89 57.2918 278.87 57.3228C278.266 58.2934 277.807 58.7718 277.092 59.7126C276.752 60.1598 276.106 61.0678 275.757 61.5662C275.481 61.9603 275.28 62.1716 275.034 62.541C275.001 62.5909 275.092 62.5829 275.083 62.5991C274.854 63.0448 274.862 62.7547 274.777 62.8189C274.471 63.0516 274.288 63.2004 273.951 63.7391C273.873 63.8632 273.813 64.349 273.666 64.5714C273.475 64.8602 273.483 64.7034 273.284 65.0071C273.267 65.033 273.314 65.0599 273.179 65.2382C272.553 66.0662 271.854 66.9567 271.216 67.8266C271.129 67.9453 271.31 67.8453 271.185 68.0177C270.599 68.8268 269.946 69.705 269.333 70.4626C269.182 70.6488 269.223 70.4913 269.177 70.5221C268.898 70.7123 268.757 71.1724 268.716 71.2343C267.718 72.713 266.787 73.7203 265.763 75.2219C265.707 75.3037 265.397 76.0219 265.073 76.2033C265.051 76.216 264.725 76.392 264.634 76.6948C264.629 76.7137 264.818 76.5938 264.594 76.8824C264.37 77.171 264.064 77.676 263.693 78.026C263.576 78.1369 263.226 78.344 263.044 78.8004C263.033 78.8303 262.827 79.5902 262.513 79.6818C262.462 79.6963 262.32 79.5352 262.069 80.0541C262.021 80.1535 262.176 80.0239 262.03 80.2703C261.806 80.6481 261.417 81.0789 261.173 81.5665C261.131 81.6517 261.01 82.0582 260.732 82.2495C260.688 82.2795 260.688 82.1606 260.581 82.2914C260.073 82.9133 259.611 83.6171 259.087 84.242C258.901 84.4634 258.896 84.2753 258.691 84.4982C258.487 84.7211 258.102 85.1897 257.957 85.4745C257.812 85.7594 258.167 85.5948 257.898 85.9828C256.731 87.67 255.434 89.2365 254.202 90.8716C254.019 91.1142 254.224 90.953 253.959 91.3135C252.981 92.6424 251.34 94.9721 250.368 96.0327C249.589 96.8822 250.375 95.6678 249.813 96.3424C249.542 96.6679 249.455 97.1736 249.4 97.26C248.865 98.1058 248.37 98.6013 247.861 99.3415C247.756 99.4944 247.94 99.4051 247.85 99.5346C247.543 99.9776 247.172 100.407 246.871 100.826C246.737 101.014 246.821 101.023 246.69 101.191C246.377 101.592 246.085 101.935 245.734 102.293C245.702 102.325 245.811 102.026 245.584 102.326C245.217 102.812 244.712 103.379 244.351 103.984C244.244 104.164 244.375 104.272 244.015 104.561C243.94 104.622 243.848 104.403 243.679 104.927C243.65 105.015 243.321 105.861 242.942 106.114C242.842 106.18 242.535 106.312 242.408 106.528C242.391 106.558 242.546 106.504 242.429 106.676C242.019 107.281 241.555 107.89 241.132 108.51C241.019 108.676 241.274 108.494 241.104 108.739C240.635 109.414 240.005 110.223 239.503 110.85C239.318 111.081 239.375 110.869 239.355 110.881C239.034 111.073 239.067 111.353 239.008 111.453C238.637 112.068 238.24 112.451 237.867 112.995C237.764 113.145 237.915 113.097 237.9 113.131C237.742 113.481 237.774 113.157 237.618 113.337C237.18 113.84 236.744 114.441 236.353 114.99C236.21 115.191 236.462 115.033 236.332 115.213C235.566 116.28 234.746 117.372 233.934 118.366C233.781 118.553 233.803 118.38 233.758 118.409C233.442 118.606 233.289 119.125 233.233 119.23C232.982 119.706 232.799 119.827 232.53 120.213C231.222 122.099 229.497 124.345 228.183 126.066C226.471 128.309 225.099 130.017 223.515 132.192C223.414 132.33 223.614 132.264 223.528 132.384C222.419 133.931 221.266 135.409 220.16 136.963C220.069 137.09 220.297 136.979 220.154 137.186C219.862 137.611 219.469 138.132 219.129 138.528C218.964 138.721 219.086 138.387 218.92 138.583C218.536 139.039 218.149 139.547 217.8 140.05C217.652 140.264 217.983 140.021 217.783 140.294C216.421 142.153 215.093 143.987 213.579 145.762C213.475 145.884 213.189 145.845 213.026 146.147C213.067 146.21 213.134 146.258 213.187 146.312C211.223 149.033 209.176 151.648 207.162 154.343C207.077 154.457 207.334 154.343 207.17 154.563C206.223 155.84 205.337 157.104 204.257 158.327C204.15 158.449 204.001 158.234 203.748 158.638C203.703 158.71 203.303 159.304 203.236 159.485C203.228 159.511 203.399 159.475 203.264 159.663C202.48 160.751 201.623 161.864 200.768 162.896C200.63 163.063 200.667 162.803 200.568 162.921C199.864 163.758 199.234 164.768 198.52 165.537C198.042 166.051 198.02 165.713 197.626 165.881C197.57 165.905 197.308 166.249 197.194 166.191C196.905 166.048 196.753 165.672 196.431 165.539C196.378 165.517 196.196 165.816 196.145 165.779C196.145 165.779 196.145 165.779 196.145 165.778C196.131 165.767 196.127 165.727 196.142 165.641C196.147 165.615 196.352 165.244 196.367 165.126C196.377 165.044 196.196 165.071 196.242 164.922C196.289 164.773 196.472 164.708 196.568 164.477C196.665 164.245 196.484 164.244 196.763 163.845ZM277.842 58.2512C277.555 58.5169 277.731 58.7186 277.929 58.3477C277.938 58.3295 277.856 58.2374 277.842 58.2512ZM305.57 20.9338C305.2 21.2849 305.097 21.6369 305.362 21.3927C305.627 21.1482 305.682 20.8266 305.57 20.9338ZM308.631 16.7189C308.228 17.1503 308.388 17.3852 308.72 16.8481C308.739 16.8169 308.655 16.6937 308.631 16.7189ZM198.604 164.465C198.596 164.465 198.406 164.711 198.406 164.72C198.421 164.938 198.801 164.446 198.604 164.465ZM311.669 12.5358C311.531 12.6618 311.248 13.1089 311.419 12.9524C311.557 12.8263 311.84 12.3786 311.669 12.5358ZM265.63 74.1482C265.623 74.1505 265.486 74.3267 265.508 74.3377C265.58 74.3724 265.748 74.1107 265.63 74.1482ZM316.919 5.49169C316.137 6.52711 315.504 7.03686 316.369 5.9187C316.526 5.71613 316.09 6.39859 316.299 6.14843C316.682 5.69034 316.819 5.29886 317.237 4.85142C317.313 4.77038 316.964 5.43276 316.918 5.4937C316.919 5.49301 316.919 5.49234 316.919 5.49169ZM277.459 58.2412C277.451 58.2453 277.264 58.4905 277.262 58.4984C277.229 58.6819 277.606 58.188 277.459 58.2412ZM257.703 84.4521C257.685 84.4606 257.25 85.0289 257.243 85.0523C257.147 85.447 258.027 84.2978 257.703 84.4521ZM289.748 41.4979C289.89 41.1842 290.125 40.857 290.36 40.6975C290.156 40.9623 289.953 41.2314 289.748 41.4979Z" fill="white"/>
</svg>
